<svg width="293" height="29" viewBox="0 0 293 29" fill="none" xmlns="http://www.w3.org/2000/svg">
<path d="M73.5398 7.54996C73.389 6.29372 72.767 5.32058 71.6737 4.63053C70.5805 3.93164 69.2045 3.58219 67.5458 3.58219C66.3583 3.58219 65.331 3.75913 64.464 4.113C63.5969 4.45802 62.9231 4.93575 62.4424 5.54617C61.9712 6.14775 61.7356 6.83338 61.7356 7.60305C61.7356 8.24886 61.8958 8.8062 62.2162 9.27508C62.5461 9.74396 62.9749 10.1376 63.5027 10.4561C64.0399 10.7658 64.6148 11.0267 65.2274 11.2391C65.84 11.4425 66.429 11.6106 66.9945 11.7433L69.8218 12.4334C70.7454 12.6457 71.6926 12.9332 72.6633 13.2959C73.634 13.6587 74.5341 14.1364 75.3635 14.7291C76.1928 15.3218 76.862 16.0561 77.3709 16.932C77.8892 17.8078 78.1484 18.8561 78.1484 20.077C78.1484 21.6163 77.7243 22.9831 76.8761 24.1774C76.0373 25.3718 74.8168 26.3139 73.2147 27.004C71.6219 27.694 69.6946 28.0391 67.4327 28.0391C65.265 28.0391 63.3896 27.7162 61.8062 27.0703C60.2229 26.4245 58.9836 25.5089 58.0882 24.3234C57.1929 23.1291 56.6981 21.7136 56.6039 20.077H60.9863C61.0711 21.059 61.4104 21.8773 62.0042 22.532C62.6073 23.1778 63.3754 23.6599 64.3085 23.9784C65.2509 24.288 66.2829 24.4429 67.4044 24.4429C68.639 24.4429 69.737 24.2615 70.6983 23.8988C71.669 23.5272 72.4324 23.0141 72.9885 22.3594C73.5445 21.6959 73.8226 20.9218 73.8226 20.0372C73.8226 19.2321 73.5775 18.573 73.0874 18.0599C72.6068 17.5468 71.9518 17.1222 71.1224 16.786C70.3025 16.4498 69.3742 16.1534 68.3374 15.8969L64.9163 15.0211C62.5979 14.4283 60.7601 13.5569 59.403 12.4068C58.0553 11.2568 57.3814 9.73511 57.3814 7.84191C57.3814 6.27603 57.8338 4.9092 58.7385 3.74143C59.6433 2.57366 60.8685 1.66687 62.4141 1.02105C63.9598 0.366393 65.7033 0.0390625 67.6447 0.0390625C69.6051 0.0390625 71.3345 0.36197 72.833 1.00778C74.3409 1.6536 75.5284 2.5427 76.3954 3.67508C77.2625 4.79862 77.7149 6.09025 77.7526 7.54996H73.5398Z" fill="#2D3748"/>
<path d="M83.3684 0.410627H88.6697L97.887 21.5367H98.2263L107.443 0.410627H112.745V27.5879H108.589V7.92153H108.32L99.7813 27.5481H96.3319L87.7933 7.90826H87.5247V27.5879H83.3684V0.410627Z" fill="#2D3748"/>
<path d="M123.464 0.410627V27.5879H119.096V0.410627H123.464Z" fill="#2D3748"/>
<path d="M153.194 0.410627V27.5879H149.179L134.462 7.65613H134.194V27.5879H129.826V0.410627H133.869L148.599 20.3689H148.868V0.410627H153.194Z" fill="#2D3748"/>
<path d="M159.566 27.5879V0.410627H163.934V12.2211H178.368V0.410627H182.75V27.5879H178.368V15.7376H163.934V27.5879H159.566Z" fill="#2D3748"/>
<path d="M214.261 13.9993C214.261 16.901 213.696 19.3958 212.565 21.4836C211.434 23.5626 209.884 25.1639 207.914 26.2874C205.954 27.4021 203.725 27.9594 201.227 27.9594C198.72 27.9594 196.482 27.4021 194.512 26.2874C192.552 25.1639 191.006 23.5582 189.875 21.4703C188.744 19.3825 188.179 16.8921 188.179 13.9993C188.179 11.0975 188.744 8.60715 189.875 6.52816C191.006 4.44033 192.552 2.83906 194.512 1.72437C196.482 0.600832 198.72 0.0390625 201.227 0.0390625C203.725 0.0390625 205.954 0.600832 207.914 1.72437C209.884 2.83906 211.434 4.44033 212.565 6.52816C213.696 8.60715 214.261 11.0975 214.261 13.9993ZM209.936 13.9993C209.936 11.7876 209.554 9.92532 208.79 8.41252C208.036 6.89088 207 5.7408 205.68 4.96229C204.37 4.17492 202.886 3.78124 201.227 3.78124C199.559 3.78124 198.07 4.17492 196.76 4.96229C195.45 5.7408 194.413 6.89088 193.65 8.41252C192.896 9.92532 192.519 11.7876 192.519 13.9993C192.519 16.2109 192.896 18.0776 193.65 19.5993C194.413 21.1121 195.45 22.2621 196.76 23.0495C198.07 23.828 199.559 24.2173 201.227 24.2173C202.886 24.2173 204.37 23.828 205.68 23.0495C207 22.2621 208.036 21.1121 208.79 19.5993C209.554 18.0776 209.936 16.2109 209.936 13.9993Z" fill="#2D3748"/>
<path d="M238.326 0.410627H242.708V18.2855C242.708 20.1876 242.232 21.8729 241.28 23.3414C240.329 24.8011 238.99 25.9512 237.266 26.7917C235.541 27.6233 233.519 28.0391 231.201 28.0391C228.892 28.0391 226.875 27.6233 225.15 26.7917C223.426 25.9512 222.087 24.8011 221.135 23.3414C220.184 21.8729 219.708 20.1876 219.708 18.2855V0.410627H224.076V17.9538C224.076 19.1835 224.363 20.276 224.938 21.2315C225.523 22.1869 226.347 22.9389 227.412 23.4874C228.477 24.0271 229.74 24.2969 231.201 24.2969C232.671 24.2969 233.939 24.0271 235.004 23.4874C236.078 22.9389 236.898 22.1869 237.463 21.2315C238.038 20.276 238.326 19.1835 238.326 17.9538V0.410627Z" fill="#2D3748"/>
<path d="M264.85 7.54996C264.699 6.29372 264.077 5.32058 262.984 4.63053C261.891 3.93164 260.515 3.58219 258.856 3.58219C257.669 3.58219 256.641 3.75913 255.774 4.113C254.907 4.45802 254.233 4.93575 253.753 5.54617C253.281 6.14775 253.046 6.83338 253.046 7.60305C253.046 8.24886 253.206 8.8062 253.526 9.27508C253.856 9.74396 254.285 10.1376 254.813 10.4561C255.35 10.7658 255.925 11.0267 256.538 11.2391C257.15 11.4425 257.739 11.6106 258.305 11.7433L261.132 12.4334C262.056 12.6457 263.003 12.9332 263.974 13.2959C264.944 13.6587 265.844 14.1364 266.674 14.7291C267.503 15.3218 268.172 16.0561 268.681 16.932C269.199 17.8078 269.459 18.8561 269.459 20.077C269.459 21.6163 269.035 22.9831 268.186 24.1774C267.348 25.3718 266.127 26.3139 264.525 27.004C262.932 27.694 261.005 28.0391 258.743 28.0391C256.575 28.0391 254.7 27.7162 253.116 27.0703C251.533 26.4245 250.294 25.5089 249.398 24.3234C248.503 23.1291 248.008 21.7136 247.914 20.077H252.297C252.381 21.059 252.721 21.8773 253.314 22.532C253.918 23.1778 254.686 23.6599 255.619 23.9784C256.561 24.288 257.593 24.4429 258.715 24.4429C259.949 24.4429 261.047 24.2615 262.009 23.8988C262.979 23.5272 263.743 23.0141 264.299 22.3594C264.855 21.6959 265.133 20.9218 265.133 20.0372C265.133 19.2321 264.888 18.573 264.398 18.0599C263.917 17.5468 263.262 17.1222 262.433 16.786C261.613 16.4498 260.684 16.1534 259.648 15.8969L256.227 15.0211C253.908 14.4283 252.07 13.5569 250.713 12.4068C249.366 11.2568 248.692 9.73511 248.692 7.84191C248.692 6.27603 249.144 4.9092 250.049 3.74143C250.954 2.57366 252.179 1.66687 253.724 1.02105C255.27 0.366393 257.014 0.0390625 258.955 0.0390625C260.915 0.0390625 262.645 0.36197 264.143 1.00778C265.651 1.6536 266.839 2.5427 267.706 3.67508C268.573 4.79862 269.025 6.09025 269.063 7.54996H264.85Z" fill="#2D3748"/>
<path d="M274.679 27.5879V0.410627H292.83V3.94049H279.047V12.2211H291.883V15.7376H279.047V24.058H293V27.5879H274.679Z" fill="#2D3748"/>
<path d="M5.25128 18.3845L7.57912 14.7868C7.8788 14.3211 8.3952 14.0427 8.94907 14.0427H17.6477C18.1936 14.0427 18.702 13.7696 19.0043 13.3146L21.49 9.58573C21.7924 9.13067 22.3007 8.85764 22.8466 8.85764H38.2238C38.6572 8.85764 38.9168 9.34214 38.676 9.70352L36.2705 13.3119C35.9682 13.7669 35.4598 14.04 34.9139 14.04H25.7149C25.1611 14.04 24.6473 14.3211 24.345 14.7841L21.9556 18.4755C21.6559 18.9413 21.1395 19.2197 20.5856 19.2197H5.70882C5.27803 19.2223 5.01849 18.7459 5.25128 18.3845Z" fill="#0BC5EA"/>
<path d="M15.9211 10.4038H10.9041C10.4707 10.4038 10.2111 9.91926 10.4519 9.55789L16.3117 0.767162C16.6141 0.3121 17.1224 0.0390625 17.6683 0.0390625H43.4057C43.8392 0.0390625 44.0987 0.52357 43.8579 0.884943L41.4525 4.49332C41.1501 4.94838 40.6417 5.22142 40.0959 5.22142H21.1226C20.5767 5.22142 20.0684 5.49446 19.766 5.94952L17.2803 9.67835C16.9753 10.1307 16.4669 10.4038 15.9211 10.4038Z" fill="#0BC5EA"/>
<path d="M28.0289 17.6744H33.0459C33.4793 17.6744 33.7389 18.1589 33.4981 18.5202L27.6383 27.311C27.3359 27.766 26.8276 28.0391 26.2817 28.0391H0.544304C0.110842 28.0391 -0.1487 27.5546 0.0921119 27.1932L2.49756 23.5848C2.79991 23.1298 3.30829 22.8567 3.85413 22.8567H22.8274C23.3733 22.8567 23.8816 22.5837 24.184 22.1286L26.6697 18.3998C26.9747 17.9474 27.4831 17.6744 28.0289 17.6744Z" fill="#0BC5EA"/>
</svg>
