<svg width="32" height="33" viewBox="0 0 32 33" fill="none" xmlns="http://www.w3.org/2000/svg">
<g clip-path="url(#clip0_245_17922)">
<path d="M16.0067 32.0524C24.8469 32.0524 32.0133 24.886 32.0133 16.0457C32.0133 7.20549 24.8469 0.0390625 16.0067 0.0390625C7.16643 0.0390625 0 7.20549 0 16.0457C0 24.886 7.16643 32.0524 16.0067 32.0524Z" fill="url(#paint0_linear_245_17922)"/>
<path fill-rule="evenodd" clip-rule="evenodd" d="M7.23698 15.8724C11.9017 13.8465 15.0071 12.5004 16.5664 11.8474C21.0046 9.99482 21.9375 9.67495 22.5373 9.66162C22.6706 9.66162 22.9638 9.68828 23.1637 9.84821C23.3236 9.98149 23.3636 10.1547 23.3903 10.288C23.4169 10.4213 23.4436 10.7012 23.4169 10.9144C23.177 13.4467 22.1374 19.5908 21.6043 22.4163C21.3778 23.6158 20.9379 24.0156 20.5115 24.0556C19.5785 24.1356 18.8721 23.4425 17.9792 22.8561C16.5664 21.9365 15.7801 21.3634 14.4073 20.4571C12.8213 19.4176 13.8476 18.8445 14.7539 17.9115C14.9938 17.6716 19.0854 13.9398 19.1653 13.6066C19.1787 13.5667 19.1787 13.4067 19.0854 13.3268C18.9921 13.2468 18.8588 13.2734 18.7522 13.3001C18.6056 13.3268 16.3665 14.8195 12.0083 17.7649C11.3686 18.2047 10.7955 18.418 10.2757 18.4046C9.70262 18.3913 8.60975 18.0848 7.78342 17.8182C6.78384 17.4984 5.98417 17.3251 6.05081 16.7653C6.0908 16.4721 6.49063 16.1789 7.23698 15.8724Z" fill="white"/>
</g>
<defs>
<linearGradient id="paint0_linear_245_17922" x1="15.9933" y1="0.0390625" x2="15.9933" y2="31.7992" gradientUnits="userSpaceOnUse">
<stop stop-color="#2AABEE"/>
<stop offset="1" stop-color="#229ED9"/>
</linearGradient>
<clipPath id="clip0_245_17922">
<rect width="32" height="32" fill="white" transform="translate(0 0.0390625)"/>
</clipPath>
</defs>
</svg>
