<svg width="32" height="33" viewBox="0 0 32 33" fill="none" xmlns="http://www.w3.org/2000/svg">
<g clip-path="url(#clip0_245_17917)">
<path fill-rule="evenodd" clip-rule="evenodd" d="M4.93095 0.0390625H27.069C29.7922 0.0390625 32 2.24674 32 4.97002V27.1081C32 29.8313 29.7922 32.0391 27.069 32.0391H4.93095C2.20768 32.0391 0 29.8313 0 27.1081V4.97002C0 2.24674 2.20768 0.0390625 4.93095 0.0390625Z" fill="#4C75A3"/>
<path fill-rule="evenodd" clip-rule="evenodd" d="M15.7315 22.4403H17.0405C17.0405 22.4403 17.4358 22.3967 17.6379 22.1793C17.8237 21.9794 17.8177 21.6043 17.8177 21.6043C17.8177 21.6043 17.7921 19.8479 18.6072 19.5892C19.411 19.3343 20.4429 21.2867 21.5365 22.0375C22.3636 22.6055 22.9921 22.4812 22.9921 22.4812L25.9167 22.4403C25.9167 22.4403 27.4465 22.3459 26.7211 21.1431C26.6617 21.0448 26.2985 20.2533 24.5465 18.6271C22.7125 16.925 22.9584 17.2003 25.1674 14.2561C26.5127 12.4631 27.0504 11.3685 26.8824 10.8997C26.7223 10.4531 25.7327 10.5711 25.7327 10.5711L22.4399 10.5914C22.4399 10.5914 22.1955 10.5582 22.0146 10.6665C21.8377 10.7723 21.7241 11.0197 21.7241 11.0197C21.7241 11.0197 21.2027 12.4071 20.5079 13.5872C19.0416 16.077 18.4552 16.2088 18.2155 16.0539C17.6579 15.6936 17.7972 14.6065 17.7972 13.8341C17.7972 11.4211 18.1632 10.4151 17.0845 10.1546C16.7266 10.0683 16.463 10.0111 15.5475 10.0018C14.3725 9.98983 13.3783 10.0054 12.8152 10.2813C12.4405 10.4647 12.1515 10.8734 12.3276 10.897C12.5453 10.9259 13.0381 11.03 13.2994 11.3855C13.6369 11.8447 13.6251 12.8756 13.6251 12.8756C13.6251 12.8756 13.819 15.716 13.1723 16.0687C12.7285 16.3107 12.1196 15.8167 10.8123 13.5578C10.1426 12.4008 9.63681 11.1217 9.63681 11.1217C9.63681 11.1217 9.53942 10.8827 9.36544 10.7547C9.15445 10.5997 8.85964 10.5506 8.85964 10.5506L5.73043 10.5711C5.73043 10.5711 5.26079 10.5842 5.0882 10.7884C4.93466 10.9703 5.07594 11.3459 5.07594 11.3459C5.07594 11.3459 7.52561 17.0773 10.2996 19.9656C12.8435 22.6141 15.7315 22.4403 15.7315 22.4403Z" fill="white"/>
</g>
<defs>
<clipPath id="clip0_245_17917">
<rect width="32" height="32" fill="white" transform="translate(0 0.0390625)"/>
</clipPath>
</defs>
</svg>
