<svg width="32" height="33" viewBox="0 0 32 33" fill="none" xmlns="http://www.w3.org/2000/svg">
<g clip-path="url(#clip0_245_17909)">
<path d="M19.0857 19.1248C16.5714 21.7191 16.3886 24.9534 16.1714 32.0391C22.7771 32.0391 27.3371 32.0162 29.6914 29.7305C31.9771 27.3762 32 22.5991 32 16.2105C24.9143 16.4391 21.68 16.6105 19.0857 19.1248ZM0 16.2105C0 22.5991 0.0228571 27.3762 2.30857 29.7305C4.66286 32.0162 9.22286 32.0391 15.8286 32.0391C15.6 24.9534 15.4286 21.7191 12.9143 19.1248C10.32 16.6105 7.08571 16.4276 0 16.2105ZM15.8286 0.0390625C9.23429 0.0390625 4.66286 0.0619196 2.30857 2.34763C0.0228571 4.70192 0 9.47906 0 15.8676C7.08571 15.6391 10.32 15.4676 12.9143 12.9533C15.4286 10.3591 15.6114 7.12478 15.8286 0.0390625ZM19.0857 12.9533C16.5714 10.3591 16.3886 7.12478 16.1714 0.0390625C22.7771 0.0390625 27.3371 0.0619196 29.6914 2.34763C31.9771 4.70192 32 9.47906 32 15.8676C24.9143 15.6391 21.68 15.4676 19.0857 12.9533Z" fill="#2C3036"/>
<path d="M32 16.2105V15.8676C24.9143 15.6391 21.68 15.4676 19.0857 12.9533C16.5714 10.3591 16.3886 7.12478 16.1714 0.0390625H15.8286C15.6 7.12478 15.4286 10.3591 12.9143 12.9533C10.32 15.4676 7.08571 15.6505 0 15.8676V16.2105C7.08571 16.4391 10.32 16.6105 12.9143 19.1248C15.4286 21.7191 15.6114 24.9534 15.8286 32.0391H16.1714C16.4 24.9534 16.5714 21.7191 19.0857 19.1248C21.68 16.6105 24.9143 16.4276 32 16.2105Z" fill="white"/>
</g>
<defs>
<clipPath id="clip0_245_17909">
<rect width="32" height="32" fill="white" transform="translate(0 0.0390625)"/>
</clipPath>
</defs>
</svg>
