<svg width="33" height="33" viewBox="0 0 33 33" fill="none" xmlns="http://www.w3.org/2000/svg">
<path d="M31.3845 8.25467C31.0152 6.87464 29.9306 5.79013 28.5506 5.42072C26.0518 4.75049 16.0274 4.75049 16.0274 4.75049C16.0274 4.75049 6.00301 4.75049 3.50417 5.42072C2.12415 5.79013 1.03964 6.87464 0.670227 8.25467C2.00624e-07 10.7535 0 15.9702 0 15.9702C0 15.9702 2.00624e-07 21.1869 0.670227 23.6858C1.03964 25.0658 2.12415 26.1503 3.50417 26.5196C6.00301 27.1899 16.0274 27.1899 16.0274 27.1899C16.0274 27.1899 26.0518 27.1899 28.5506 26.5196C29.9306 26.1503 31.0152 25.0658 31.3845 23.6858C32.0548 21.1869 32.0548 15.9702 32.0548 15.9702C32.0548 15.9702 32.0521 10.7535 31.3845 8.25467Z" fill="#FF0000"/>
<path d="M12.8188 20.7785L21.1466 15.9708L12.8188 11.1631V20.7785Z" fill="white"/>
</svg>
