<svg width="18" height="20" viewBox="0 0 18 20" fill="none" xmlns="http://www.w3.org/2000/svg">
<path d="M11.9995 5.49951L4.18934 13.4393C3.90804 13.7206 3.75 14.1021 3.75 14.5C3.75 14.8978 3.90804 15.2793 4.18934 15.5606C4.47064 15.8419 4.85218 16 5.25 16C5.64783 16 6.02936 15.8419 6.31066 15.5606L15.6208 6.12083C15.8993 5.84226 16.1203 5.51154 16.2711 5.14756C16.4219 4.78359 16.4994 4.39348 16.4994 3.99951C16.4994 3.60555 16.4219 3.21544 16.2711 2.85146C16.1203 2.48748 15.8993 2.15677 15.6208 1.87819C15.3422 1.59962 15.0115 1.37864 14.6475 1.22787C14.2835 1.07711 13.8934 0.999512 13.4994 0.999512C13.1055 0.999512 12.7154 1.07711 12.3514 1.22787C11.9874 1.37864 11.6567 1.59962 11.3781 1.87819L2.06802 11.318C1.22411 12.1619 0.75 13.3065 0.75 14.5C0.75 15.6934 1.22411 16.838 2.06802 17.682C2.91193 18.5259 4.05653 19 5.25 19C6.44347 19 7.58807 18.5259 8.43198 17.682L16.1244 9.99951" stroke="#A0AEC0" stroke-width="1.5" stroke-linecap="round" stroke-linejoin="round"/>
</svg>
