<svg width="52" height="52" viewBox="0 0 52 52" fill="none" xmlns="http://www.w3.org/2000/svg">
<rect width="52" height="52" rx="8" fill="#42526B"/>
<rect x="0.5" y="0.5" width="51" height="51" rx="7.5" stroke="white" stroke-opacity="0.2"/>
<path d="M16.6393 28.6383L17.9423 26.454C18.11 26.1712 18.399 26.0022 18.709 26.0022H23.5779C23.8834 26.0022 24.168 25.8364 24.3372 25.5601L25.7286 23.2962C25.8978 23.0199 26.1823 22.8541 26.4879 22.8541H35.0949C35.3375 22.8541 35.4828 23.1483 35.348 23.3677L34.0016 25.5585C33.8324 25.8348 33.5478 26.0006 33.2423 26.0006H28.0933C27.7833 26.0006 27.4958 26.1712 27.3266 26.4524L25.9891 28.6936C25.8214 28.9763 25.5324 29.1454 25.2224 29.1454H16.8954C16.6543 29.147 16.509 28.8577 16.6393 28.6383Z" fill="white"/>
<path d="M22.6115 23.7929H19.8034C19.5607 23.7929 19.4155 23.4987 19.5503 23.2793L22.8301 17.9421C22.9993 17.6658 23.2839 17.5 23.5894 17.5H37.9954C38.238 17.5 38.3832 17.7942 38.2485 18.0136L36.9021 20.2044C36.7328 20.4807 36.4483 20.6464 36.1428 20.6464H25.5229C25.2174 20.6464 24.9328 20.8122 24.7636 21.0885L23.3723 23.3524C23.2015 23.6271 22.917 23.7929 22.6115 23.7929Z" fill="white"/>
<path d="M29.3886 28.2071H32.1967C32.4393 28.2071 32.5846 28.5013 32.4498 28.7207L29.1699 34.0579C29.0007 34.3342 28.7161 34.5 28.4106 34.5H14.0047C13.7621 34.5 13.6168 34.2058 13.7516 33.9864L15.098 31.7956C15.2672 31.5193 15.5518 31.3536 15.8573 31.3536H26.4771C26.7827 31.3536 27.0672 31.1878 27.2364 30.9115L28.6278 28.6476C28.7985 28.3729 29.0831 28.2071 29.3886 28.2071Z" fill="white"/>
</svg>
