<svg width="890" height="845" viewBox="0 0 890 845" fill="none" xmlns="http://www.w3.org/2000/svg">
<g opacity="0.3">
<ellipse opacity="0.1" cx="28" cy="-16.406" rx="860" ry="859.594" fill="white" stroke="#0BC5EA" stroke-width="3" stroke-miterlimit="4.62023" stroke-linecap="round" stroke-dasharray="35 50 15 15"/>
<path opacity="0.1" d="M820.721 -16.4059C820.721 421.177 465.809 775.909 28.0001 775.909C-409.808 775.909 -764.721 421.177 -764.721 -16.4059C-764.721 -453.989 -409.808 -808.721 28.0001 -808.721C465.809 -808.721 820.721 -453.989 820.721 -16.4059Z" fill="white" stroke="#0BC5EA" stroke-width="3"/>
<ellipse opacity="0.2" cx="28" cy="-16.406" rx="727.63" ry="727.224" fill="white" stroke="#0BC5EA" stroke-width="3" stroke-miterlimit="4.62023" stroke-linecap="round" stroke-dasharray="35 50 15 15"/>
<path opacity="0.3" d="M689.163 -16.4062C689.163 348.519 393.151 644.351 28.0002 644.351C-337.151 644.351 -633.163 348.519 -633.163 -16.4062C-633.163 -381.331 -337.151 -677.163 28.0002 -677.163C393.151 -677.163 689.163 -381.331 689.163 -16.4062Z" fill="white" stroke="#0BC5EA" stroke-width="3"/>
<ellipse opacity="0.4" cx="28" cy="-16.406" rx="596.072" ry="595.666" fill="white" stroke="#0BC5EA" stroke-width="3" stroke-miterlimit="4.62023" stroke-linecap="round" stroke-dasharray="35 50 15 15"/>
<path opacity="0.5" d="M555.169 -16.4061C555.169 274.516 319.148 510.356 28.0001 510.356C-263.148 510.356 -499.169 274.516 -499.169 -16.4061C-499.169 -307.328 -263.148 -543.169 28.0001 -543.169C319.148 -543.169 555.169 -307.328 555.169 -16.4061Z" fill="white" stroke="#0BC5EA" stroke-width="3"/>
<path opacity="0.6" d="M483.705 -16.406C483.705 239.084 276.408 446.202 20.6913 446.202C-235.025 446.202 -442.323 239.084 -442.323 -16.406C-442.323 -271.896 -235.025 -479.014 20.6913 -479.014C276.408 -479.014 483.705 -271.896 483.705 -16.406Z" fill="white" stroke="#0BC5EA" stroke-width="3"/>
<ellipse opacity="0.7" cx="28.0002" cy="-16.4061" rx="401.983" ry="401.577" fill="white" stroke="#0BC5EA" stroke-width="3" stroke-miterlimit="4.62023" stroke-linecap="round" stroke-dasharray="35 50 15 15"/>
<path opacity="0.8" d="M358.643 -16.4061C358.643 165.977 210.611 313.831 28 313.831C-154.611 313.831 -302.644 165.977 -302.644 -16.4061C-302.644 -198.789 -154.611 -346.644 28 -346.644C210.611 -346.644 358.643 -198.789 358.643 -16.4061Z" fill="white" stroke="#0BC5EA" stroke-width="3"/>
<ellipse opacity="0.9" cx="28.0002" cy="-16.4058" rx="255.807" ry="255.401" fill="white" stroke="#0BC5EA" stroke-width="3" stroke-miterlimit="4.62023" stroke-linecap="round" stroke-dasharray="35 50 15 15"/>
<ellipse cx="28.0006" cy="-16.4054" rx="122.625" ry="122.219" fill="white" stroke="#0BC5EA" stroke-width="3" stroke-miterlimit="4.62023" stroke-linecap="round" stroke-dasharray="35 50 15 15"/>
</g>
</svg>
