<svg width="115" height="33" viewBox="0 0 115 33" fill="none" xmlns="http://www.w3.org/2000/svg">
<g clip-path="url(#clip0_245_20377)">
<path fill-rule="evenodd" clip-rule="evenodd" d="M86.0898 23.8148C86.0898 28.574 82.1277 32.4328 77.242 32.4328C72.3553 32.4328 68.3941 28.574 68.3941 23.8148H73.2197C73.2197 25.9786 75.0203 27.7322 77.242 27.7322C79.4626 27.7322 81.2633 25.9786 81.2633 23.8148H86.0898ZM77.242 11.288C79.4626 11.288 81.2633 13.0417 81.2633 15.2054C81.2633 17.3681 79.4626 19.1218 77.242 19.1218C75.0203 19.1218 73.2197 17.3681 73.2197 15.2054C73.2197 13.0417 75.0203 11.288 77.242 11.288ZM77.242 6.58838C82.1277 6.58838 86.0898 10.4462 86.0898 15.2054C86.0898 19.9646 82.1277 23.8224 77.242 23.8224C72.3553 23.8224 68.3941 19.9646 68.3941 15.2054C68.3941 10.4462 72.3553 6.58838 77.242 6.58838ZM57.606 6.58838C62.4287 6.58838 66.3383 10.3961 66.3383 15.093V23.5985H57.606C52.7824 23.5985 48.8726 19.7907 48.8726 15.093C48.8726 10.3961 52.7824 6.58838 57.606 6.58838ZM57.606 11.1766C59.8267 11.1766 61.6273 12.9302 61.6273 15.093C61.6273 17.2566 59.8267 19.0103 57.606 19.0103C55.3843 19.0103 53.5838 17.2566 53.5838 15.093C53.5838 12.9302 55.3843 11.1766 57.606 11.1766ZM29.5714 6.81135H38.1893C42.9489 6.81135 46.8072 10.5699 46.8072 15.2054V23.5985H41.9817V14.869C41.9817 12.83 40.2839 11.1766 38.1893 11.1766C36.0947 11.1766 34.398 12.83 34.398 14.869V23.5985H29.5734L29.5714 6.81135Z" fill="white"/>
<path fill-rule="evenodd" clip-rule="evenodd" d="M82.814 2.17303C83.6362 2.17303 84.3032 2.82215 84.3032 3.62243C84.3032 4.42367 83.6362 5.07182 82.814 5.07182C81.992 5.07182 81.3255 4.42367 81.3255 3.62243C81.3255 2.82215 81.992 2.17303 82.814 2.17303ZM82.814 0.432617C84.6228 0.432617 86.089 1.86123 86.089 3.62243C86.089 5.38363 84.6228 6.81223 82.814 6.81223C81.0053 6.81223 79.5394 5.38363 79.5394 3.62243C79.5394 1.86123 81.0053 0.432617 82.814 0.432617Z" fill="white"/>
</g>
<defs>
<clipPath id="clip0_245_20377">
<rect width="115" height="32" fill="white" transform="translate(0 0.432617)"/>
</clipPath>
</defs>
</svg>
