<svg width="335" height="229" viewBox="0 0 335 229" fill="none" xmlns="http://www.w3.org/2000/svg">
<rect y="0.432617" width="107" height="48" rx="8" fill="#0BC5EA"/>
<path d="M29.7467 30.5766C28.2947 30.5766 27.1907 30.2166 26.4347 29.4966C25.6787 28.7766 25.2527 27.7686 25.1567 26.4726H26.9207C27.0167 27.3246 27.2867 27.9666 27.7307 28.3986C28.1747 28.8186 28.8467 29.0286 29.7467 29.0286C30.6467 29.0286 31.3127 28.8306 31.7447 28.4346C32.1767 28.0386 32.3927 27.5046 32.3927 26.8326C32.3927 26.2086 32.1767 25.7046 31.7447 25.3206C31.3127 24.9246 30.6467 24.7266 29.7467 24.7266H28.2167V23.1786H29.7467C30.5507 23.1786 31.1447 23.0046 31.5287 22.6566C31.9247 22.2966 32.1227 21.8226 32.1227 21.2346C32.1227 20.6226 31.9247 20.1366 31.5287 19.7766C31.1447 19.4166 30.5507 19.2366 29.7467 19.2366C28.9427 19.2366 28.3367 19.4346 27.9287 19.8306C27.5327 20.2146 27.2867 20.8086 27.1907 21.6126H25.4267C25.5227 20.3766 25.9307 19.4166 26.6507 18.7326C27.3707 18.0366 28.4027 17.6886 29.7467 17.6886C30.4187 17.6886 31.0127 17.7786 31.5287 17.9586C32.0447 18.1266 32.4767 18.3666 32.8247 18.6786C33.1727 18.9786 33.4367 19.3386 33.6167 19.7586C33.7967 20.1786 33.8867 20.6406 33.8867 21.1446C33.8867 22.4286 33.3467 23.3466 32.2667 23.8986V23.9346C32.8787 24.2106 33.3467 24.6066 33.6707 25.1226C33.9947 25.6386 34.1567 26.2386 34.1567 26.9226C34.1567 27.4506 34.0607 27.9426 33.8687 28.3986C33.6767 28.8426 33.3947 29.2266 33.0227 29.5506C32.6627 29.8746 32.2067 30.1266 31.6547 30.3066C31.1027 30.4866 30.4667 30.5766 29.7467 30.5766ZM38.8318 30.5766C37.8118 30.5766 37.0438 30.3366 36.5278 29.8566C36.0238 29.3766 35.7718 28.7226 35.7718 27.8946C35.7718 26.9946 36.0718 26.2866 36.6718 25.7706C37.2838 25.2426 38.2738 24.9786 39.6418 24.9786H41.7118V24.4926C41.7118 23.9046 41.5558 23.4726 41.2438 23.1966C40.9438 22.9086 40.4398 22.7646 39.7318 22.7646C39.0838 22.7646 38.6098 22.8786 38.3098 23.1066C38.0098 23.3226 37.8358 23.6046 37.7878 23.9526H36.1318C36.1558 23.5806 36.2458 23.2326 36.4018 22.9086C36.5698 22.5846 36.8038 22.3026 37.1038 22.0626C37.4038 21.8226 37.7698 21.6366 38.2018 21.5046C38.6458 21.3606 39.1558 21.2886 39.7318 21.2886C40.9678 21.2886 41.8738 21.5646 42.4498 22.1166C43.0378 22.6686 43.3318 23.4906 43.3318 24.5826V30.4326H42.0718L41.8738 29.0826H41.8378C41.1058 30.0786 40.1038 30.5766 38.8318 30.5766ZM39.0118 29.1006C39.3838 29.1006 39.7318 29.0406 40.0558 28.9206C40.3918 28.7886 40.6798 28.6146 40.9198 28.3986C41.1718 28.1706 41.3638 27.9126 41.4958 27.6246C41.6398 27.3246 41.7118 27.0066 41.7118 26.6706V26.3466H39.7318C38.8918 26.3466 38.3038 26.4906 37.9678 26.7786C37.6318 27.0546 37.4638 27.4206 37.4638 27.8766C37.4638 28.2366 37.5898 28.5306 37.8418 28.7586C38.1058 28.9866 38.4958 29.1006 39.0118 29.1006ZM47.1527 26.9766C46.5767 26.7486 46.1567 26.4186 45.8927 25.9866C45.6287 25.5546 45.4967 25.0206 45.4967 24.3846C45.4967 23.4486 45.7907 22.7226 46.3787 22.2066C46.9667 21.6906 47.9327 21.4326 49.2767 21.4326H52.3367V30.4326H50.7167V27.3006H49.2767C49.1807 27.3006 49.0847 27.3006 48.9887 27.3006C48.8927 27.3006 48.7967 27.2946 48.7007 27.2826L46.9367 30.4326H45.1367L47.1527 26.9766ZM47.1887 24.3846C47.1887 24.8526 47.3447 25.2126 47.6567 25.4646C47.9687 25.7046 48.5387 25.8246 49.3667 25.8246H50.7167V22.9086H49.3667C48.5267 22.9086 47.9507 23.0346 47.6387 23.2866C47.3387 23.5266 47.1887 23.8926 47.1887 24.3846ZM55.0346 21.4326H58.5446C59.7206 21.4326 60.5666 21.6606 61.0826 22.1166C61.6106 22.5726 61.8746 23.1786 61.8746 23.9346C61.8746 24.3186 61.7786 24.6666 61.5866 24.9786C61.3946 25.2786 61.1186 25.5306 60.7586 25.7346V25.7706C61.2266 25.9626 61.5866 26.2386 61.8386 26.5986C62.1026 26.9466 62.2346 27.3546 62.2346 27.8226C62.2346 28.6386 61.9706 29.2806 61.4426 29.7486C60.9266 30.2046 60.0806 30.4326 58.9046 30.4326H55.0346V21.4326ZM60.1826 24.0246C60.1826 23.6766 60.0566 23.4066 59.8046 23.2146C59.5646 23.0106 59.1146 22.9086 58.4546 22.9086H56.6546V25.1586H58.4546C59.1146 25.1586 59.5646 25.0626 59.8046 24.8706C60.0566 24.6666 60.1826 24.3846 60.1826 24.0246ZM60.5426 27.7326C60.5426 27.3486 60.4166 27.0546 60.1646 26.8506C59.9126 26.6346 59.4626 26.5266 58.8146 26.5266H56.6546V28.9566H58.8146C59.4626 28.9566 59.9126 28.8546 60.1646 28.6506C60.4166 28.4346 60.5426 28.1286 60.5426 27.7326ZM64.3861 21.4326H66.0061V25.0146H67.2661L69.7141 21.4326H71.5861L68.5441 25.6986L71.9461 30.4326H70.0021L67.2661 26.4906H66.0061V30.4326H64.3861V21.4326ZM73.5619 21.4326H75.1819V28.4526H75.2179L79.1419 21.4326H81.3019V30.4326H79.6819V23.4126H79.6459L75.7219 30.4326H73.5619V21.4326Z" fill="white"/>
<rect x="119" y="0.432617" width="77" height="48" rx="8" fill="#EDF2F7"/>
<path d="M148.671 25.9866C147.927 25.9866 147.297 25.9146 146.781 25.7706C146.265 25.6266 145.839 25.4346 145.503 25.1946C145.179 24.9546 144.927 24.6786 144.747 24.3666C144.567 24.0546 144.429 23.7366 144.333 23.4126C144.249 23.0766 144.201 22.7466 144.189 22.4226C144.177 22.0986 144.171 21.7986 144.171 21.5226V17.8326H145.863V21.4326C145.863 21.7326 145.875 22.0566 145.899 22.4046C145.935 22.7526 146.043 23.0766 146.223 23.3766C146.403 23.6766 146.679 23.9286 147.051 24.1326C147.435 24.3366 147.975 24.4386 148.671 24.4386C149.175 24.4386 149.649 24.4086 150.093 24.3486C150.549 24.2886 151.011 24.1926 151.479 24.0606V17.8326H153.171V30.4326H151.479V25.6446C150.927 25.7766 150.429 25.8666 149.985 25.9146C149.541 25.9626 149.103 25.9866 148.671 25.9866ZM158.388 30.5766C157.368 30.5766 156.6 30.3366 156.084 29.8566C155.58 29.3766 155.328 28.7226 155.328 27.8946C155.328 26.9946 155.628 26.2866 156.228 25.7706C156.84 25.2426 157.83 24.9786 159.198 24.9786H161.268V24.4926C161.268 23.9046 161.112 23.4726 160.8 23.1966C160.5 22.9086 159.996 22.7646 159.288 22.7646C158.64 22.7646 158.166 22.8786 157.866 23.1066C157.566 23.3226 157.392 23.6046 157.344 23.9526H155.688C155.712 23.5806 155.802 23.2326 155.958 22.9086C156.126 22.5846 156.36 22.3026 156.66 22.0626C156.96 21.8226 157.326 21.6366 157.758 21.5046C158.202 21.3606 158.712 21.2886 159.288 21.2886C160.524 21.2886 161.43 21.5646 162.006 22.1166C162.594 22.6686 162.888 23.4906 162.888 24.5826V30.4326H161.628L161.43 29.0826H161.394C160.662 30.0786 159.66 30.5766 158.388 30.5766ZM158.568 29.1006C158.94 29.1006 159.288 29.0406 159.612 28.9206C159.948 28.7886 160.236 28.6146 160.476 28.3986C160.728 28.1706 160.92 27.9126 161.052 27.6246C161.196 27.3246 161.268 27.0066 161.268 26.6706V26.3466H159.288C158.448 26.3466 157.86 26.4906 157.524 26.7786C157.188 27.0546 157.02 27.4206 157.02 27.8766C157.02 28.2366 157.146 28.5306 157.398 28.7586C157.662 28.9866 158.052 29.1006 158.568 29.1006ZM166.952 22.9086H164.072V21.4326H171.452V22.9086H168.572V30.4326H166.952V22.9086Z" fill="#42526B"/>
<rect x="208" y="0.432617" width="88" height="48" rx="8" fill="#EDF2F7"/>
<path d="M236.538 23.9886L232.83 17.8326H234.774L237.924 23.1966H239.544V17.8326H241.236V23.1966H242.856L246.042 17.8326H247.95L244.242 23.8986L248.22 30.4326H246.24L242.856 24.7446H241.236V30.4326H239.544V24.7446H237.924L234.504 30.4326H232.56L236.538 23.9886ZM250.109 17.8326H251.801V23.1786H253.421L257.309 17.8326H259.289L254.789 23.8806L259.649 30.4326H257.561L253.421 24.7266H251.801V30.4326H250.109V17.8326ZM264.971 23.8626L260.993 17.8326H263.045L266.051 22.5126L269.093 17.8326H271.073L267.095 23.8266L271.433 30.4326H269.345L266.015 25.2126L262.649 30.4326H260.633L264.971 23.8626Z" fill="#42526B"/>
<rect y="60.4326" width="159" height="48" rx="8" fill="#EDF2F7"/>
<path d="M29.1392 86.8326L24.6032 77.8326H26.5112L30.0032 84.9426H30.0392L33.0632 77.8326H34.8632L29.3732 90.4326H27.5732L29.1392 86.8326ZM35.5072 81.4326H39.0172C40.1932 81.4326 41.0392 81.6606 41.5552 82.1166C42.0832 82.5726 42.3472 83.1786 42.3472 83.9346C42.3472 84.3186 42.2512 84.6666 42.0592 84.9786C41.8672 85.2786 41.5912 85.5306 41.2312 85.7346V85.7706C41.6992 85.9626 42.0592 86.2386 42.3112 86.5986C42.5752 86.9466 42.7072 87.3546 42.7072 87.8226C42.7072 88.6386 42.4432 89.2806 41.9152 89.7486C41.3992 90.2046 40.5532 90.4326 39.3772 90.4326H35.5072V81.4326ZM40.6552 84.0246C40.6552 83.6766 40.5292 83.4066 40.2772 83.2146C40.0372 83.0106 39.5872 82.9086 38.9272 82.9086H37.1272V85.1586H38.9272C39.5872 85.1586 40.0372 85.0626 40.2772 84.8706C40.5292 84.6666 40.6552 84.3846 40.6552 84.0246ZM41.0152 87.7326C41.0152 87.3486 40.8892 87.0546 40.6372 86.8506C40.3852 86.6346 39.9352 86.5266 39.2872 86.5266H37.1272V88.9566H39.2872C39.9352 88.9566 40.3852 88.8546 40.6372 88.6506C40.8892 88.4346 41.0152 88.1286 41.0152 87.7326ZM48.4588 90.5766C47.8228 90.5766 47.2468 90.4806 46.7308 90.2886C46.2268 90.0846 45.7948 89.7966 45.4348 89.4246C45.0748 89.0406 44.7988 88.5786 44.6068 88.0386C44.4148 87.4986 44.3188 86.8806 44.3188 86.1846V85.6806C44.3188 84.9846 44.4148 84.3666 44.6068 83.8266C44.7988 83.2746 45.0688 82.8126 45.4168 82.4406C45.7768 82.0686 46.2028 81.7866 46.6948 81.5946C47.1988 81.3906 47.7568 81.2886 48.3688 81.2886C48.9808 81.2886 49.5328 81.3906 50.0248 81.5946C50.5288 81.7866 50.9548 82.0746 51.3028 82.4586C51.6628 82.8426 51.9388 83.3106 52.1308 83.8626C52.3228 84.4146 52.4188 85.0506 52.4188 85.7706V86.4186H46.0108C46.0348 87.2706 46.2508 87.9306 46.6588 88.3986C47.0788 88.8666 47.6488 89.1006 48.3688 89.1006C48.9448 89.1006 49.4188 88.9926 49.7908 88.7766C50.1628 88.5606 50.4448 88.2126 50.6368 87.7326H52.3288C52.1128 88.6686 51.6688 89.3766 50.9968 89.8566C50.3368 90.3366 49.4908 90.5766 48.4588 90.5766ZM48.3688 82.7646C47.6848 82.7646 47.1448 82.9626 46.7488 83.3586C46.3528 83.7546 46.1128 84.3306 46.0288 85.0866H50.7268C50.5828 83.5386 49.7968 82.7646 48.3688 82.7646ZM53.3237 88.9566H54.2237C54.4157 88.6926 54.5717 88.4166 54.6917 88.1286C54.8237 87.8286 54.9257 87.4986 54.9977 87.1386C55.0817 86.7666 55.1357 86.3406 55.1597 85.8606C55.1957 85.3686 55.2137 84.7926 55.2137 84.1326V81.4326H61.6937V88.9566H62.7737V92.7726H61.2257V90.4326H54.8717V92.7726H53.3237V88.9566ZM60.0737 88.9566V82.9086H56.7617V84.1326C56.7617 84.7206 56.7497 85.2486 56.7257 85.7166C56.7017 86.1726 56.6597 86.5926 56.5997 86.9766C56.5397 87.3486 56.4617 87.6966 56.3657 88.0206C56.2697 88.3326 56.1557 88.6326 56.0237 88.9206V88.9566H60.0737ZM68.076 90.5766C66.792 90.5766 65.778 90.1986 65.034 89.4426C64.302 88.6866 63.936 87.6006 63.936 86.1846V85.6806C63.936 84.2766 64.308 83.1966 65.052 82.4406C65.796 81.6726 66.804 81.2886 68.076 81.2886C69.36 81.2886 70.368 81.6666 71.1 82.4226C71.844 83.1786 72.216 84.2646 72.216 85.6806V86.1846C72.216 87.5886 71.844 88.6746 71.1 89.4426C70.356 90.1986 69.348 90.5766 68.076 90.5766ZM68.076 89.1006C68.832 89.1006 69.426 88.8666 69.858 88.3986C70.302 87.9186 70.524 87.1806 70.524 86.1846V85.6806C70.524 84.6966 70.302 83.9646 69.858 83.4846C69.426 83.0046 68.832 82.7646 68.076 82.7646C67.32 82.7646 66.72 83.0046 66.276 83.4846C65.844 83.9526 65.628 84.6846 65.628 85.6806V86.1846C65.628 87.1686 65.844 87.9006 66.276 88.3806C66.72 88.8606 67.32 89.1006 68.076 89.1006ZM74.3725 81.4326H76.7845L79.1785 86.5626H79.2145L81.6085 81.4326H83.9125V90.4326H82.2925V83.4126H82.2565L79.9525 88.3626H78.3325L76.0285 83.4126H75.9925V90.4326H74.3725V81.4326ZM85.5268 89.1006H85.7968C86.1448 89.1006 86.4148 88.9866 86.6068 88.7586C86.8108 88.5306 86.9548 88.2066 87.0388 87.7866C87.1348 87.3546 87.1888 86.8386 87.2008 86.2386C87.2248 85.6386 87.2368 84.9666 87.2368 84.2226V81.4326H93.7168V90.4326H92.0968V82.9086H88.8568V84.2226C88.8568 85.0506 88.8388 85.8486 88.8028 86.6166C88.7668 87.3846 88.6528 88.0626 88.4608 88.6506C88.2688 89.2386 87.9628 89.7066 87.5428 90.0546C87.1348 90.4026 86.5528 90.5766 85.7968 90.5766H85.5268V89.1006ZM100.015 90.5766C99.3794 90.5766 98.8034 90.4806 98.2874 90.2886C97.7834 90.0846 97.3514 89.7966 96.9914 89.4246C96.6314 89.0406 96.3554 88.5786 96.1634 88.0386C95.9714 87.4986 95.8754 86.8806 95.8754 86.1846V85.6806C95.8754 84.9846 95.9714 84.3666 96.1634 83.8266C96.3554 83.2746 96.6254 82.8126 96.9734 82.4406C97.3334 82.0686 97.7594 81.7866 98.2514 81.5946C98.7554 81.3906 99.3134 81.2886 99.9254 81.2886C100.537 81.2886 101.089 81.3906 101.581 81.5946C102.085 81.7866 102.511 82.0746 102.859 82.4586C103.219 82.8426 103.495 83.3106 103.687 83.8626C103.879 84.4146 103.975 85.0506 103.975 85.7706V86.4186H97.5674C97.5914 87.2706 97.8074 87.9306 98.2154 88.3986C98.6354 88.8666 99.2054 89.1006 99.9254 89.1006C100.501 89.1006 100.975 88.9926 101.347 88.7766C101.719 88.5606 102.001 88.2126 102.193 87.7326H103.885C103.669 88.6686 103.225 89.3766 102.553 89.8566C101.893 90.3366 101.047 90.5766 100.015 90.5766ZM99.9254 82.7646C99.2414 82.7646 98.7014 82.9626 98.3054 83.3586C97.9094 83.7546 97.6694 84.3306 97.5854 85.0866H102.283C102.139 83.5386 101.353 82.7646 99.9254 82.7646ZM106.136 81.4326H107.756V85.1046H112.256V81.4326H113.876V90.4326H112.256V86.5806H107.756V90.4326H106.136V81.4326ZM116.578 81.4326H118.198V88.4526H118.234L122.158 81.4326H124.318V90.4326H122.698V83.4126H122.662L118.738 90.4326H116.578V81.4326ZM128.225 86.9766C127.649 86.7486 127.229 86.4186 126.965 85.9866C126.701 85.5546 126.569 85.0206 126.569 84.3846C126.569 83.4486 126.863 82.7226 127.451 82.2066C128.039 81.6906 129.005 81.4326 130.349 81.4326H133.409V90.4326H131.789V87.3006H130.349C130.253 87.3006 130.157 87.3006 130.061 87.3006C129.965 87.3006 129.869 87.2946 129.773 87.2826L128.009 90.4326H126.209L128.225 86.9766ZM128.261 84.3846C128.261 84.8526 128.417 85.2126 128.729 85.4646C129.041 85.7046 129.611 85.8246 130.439 85.8246H131.789V82.9086H130.439C129.599 82.9086 129.023 83.0346 128.711 83.2866C128.411 83.5266 128.261 83.8926 128.261 84.3846Z" fill="#42526B"/>
<rect x="171" y="60.4326" width="95" height="48" rx="8" fill="#EDF2F7"/>
<path d="M201.799 90.5766C201.007 90.5766 200.287 90.4446 199.639 90.1806C198.991 89.9166 198.433 89.5266 197.965 89.0106C197.497 88.4946 197.131 87.8586 196.867 87.1026C196.615 86.3346 196.489 85.4586 196.489 84.4746V83.6106C196.489 82.6746 196.615 81.8406 196.867 81.1086C197.131 80.3766 197.497 79.7586 197.965 79.2546C198.433 78.7386 198.991 78.3486 199.639 78.0846C200.299 77.8206 201.019 77.6886 201.799 77.6886C202.519 77.6886 203.161 77.7906 203.725 77.9946C204.301 78.1986 204.793 78.4806 205.201 78.8406C205.621 79.1886 205.957 79.6026 206.209 80.0826C206.473 80.5506 206.653 81.0606 206.749 81.6126H204.949C204.853 81.2766 204.715 80.9646 204.535 80.6766C204.367 80.3886 204.151 80.1366 203.887 79.9206C203.635 79.7046 203.329 79.5366 202.969 79.4166C202.621 79.2966 202.231 79.2366 201.799 79.2366C201.295 79.2366 200.821 79.3326 200.377 79.5246C199.945 79.7046 199.573 79.9806 199.261 80.3526C198.949 80.7246 198.703 81.1806 198.523 81.7206C198.343 82.2606 198.253 82.8906 198.253 83.6106V84.4746C198.253 85.2306 198.343 85.8966 198.523 86.4726C198.703 87.0366 198.949 87.5106 199.261 87.8946C199.585 88.2666 199.963 88.5486 200.395 88.7406C200.827 88.9326 201.295 89.0286 201.799 89.0286C202.675 89.0286 203.371 88.7946 203.887 88.3266C204.415 87.8466 204.769 87.2286 204.949 86.4726H206.749C206.653 87.0726 206.473 87.6246 206.209 88.1286C205.957 88.6206 205.621 89.0526 205.201 89.4246C204.793 89.7846 204.301 90.0666 203.725 90.2706C203.161 90.4746 202.519 90.5766 201.799 90.5766ZM208.998 77.8326H210.69V83.1786H212.31L216.198 77.8326H218.178L213.678 83.8806L218.538 90.4326H216.45L212.31 84.7266H210.69V90.4326H208.998V77.8326ZM223.879 86.8326L219.343 77.8326H221.251L224.743 84.9426H224.779L227.803 77.8326H229.603L224.113 90.4326H222.313L223.879 86.8326ZM229.257 88.8846H230.337C230.601 88.5246 230.811 88.1586 230.967 87.7866C231.135 87.4146 231.261 86.9766 231.345 86.4726C231.441 85.9566 231.507 85.3446 231.543 84.6366C231.579 83.9166 231.597 83.0286 231.597 81.9726V77.8326H239.877V88.8846H241.047V93.1326H239.427V90.4326H230.877V93.1326H229.257V88.8846ZM238.185 88.8846V79.3806H233.289V81.9726C233.289 82.9686 233.271 83.8266 233.235 84.5466C233.211 85.2546 233.163 85.8726 233.091 86.4006C233.019 86.9286 232.917 87.3906 232.785 87.7866C232.665 88.1706 232.509 88.5366 232.317 88.8846H238.185Z" fill="#42526B"/>
<rect y="120.433" width="203" height="48" rx="8" fill="#EDF2F7"/>
<path d="M25.7193 137.833H29.8593C31.3833 137.833 32.4813 138.133 33.1533 138.733C33.8373 139.321 34.1793 140.143 34.1793 141.199C34.1793 142.411 33.6513 143.299 32.5953 143.863V143.899C33.8913 144.427 34.5393 145.423 34.5393 146.887C34.5393 148.027 34.1973 148.903 33.5133 149.515C32.8413 150.127 31.7433 150.433 30.2193 150.433H25.7193V137.833ZM27.4113 139.381V143.179H29.7693C30.7533 143.179 31.4373 143.017 31.8213 142.693C32.2173 142.369 32.4153 141.901 32.4153 141.289C32.4153 140.677 32.2173 140.209 31.8213 139.885C31.4373 139.549 30.7533 139.381 29.7693 139.381H27.4113ZM27.4113 144.727V148.885H30.1293C31.1133 148.885 31.7973 148.717 32.1813 148.381C32.5773 148.033 32.7753 147.505 32.7753 146.797C32.7753 146.101 32.5773 145.585 32.1813 145.249C31.7973 144.901 31.1133 144.727 30.1293 144.727H27.4113ZM36.7914 141.433H38.4114V148.453H38.4474L42.3714 141.433H44.5314V150.433H42.9114V143.413H42.8754L38.9514 150.433H36.7914V141.433ZM46.1528 148.957H47.0528C47.2448 148.693 47.4008 148.417 47.5208 148.129C47.6528 147.829 47.7548 147.499 47.8268 147.139C47.9108 146.767 47.9648 146.341 47.9888 145.861C48.0248 145.369 48.0428 144.793 48.0428 144.133V141.433H54.5228V148.957H55.6028V152.773H54.0548V150.433H47.7008V152.773H46.1528V148.957ZM52.9028 148.957V142.909H49.5908V144.133C49.5908 144.721 49.5788 145.249 49.5548 145.717C49.5308 146.173 49.4888 146.593 49.4288 146.977C49.3688 147.349 49.2908 147.697 49.1948 148.021C49.0988 148.333 48.9848 148.633 48.8528 148.921V148.957H52.9028ZM60.9051 150.577C60.2691 150.577 59.6931 150.481 59.1771 150.289C58.6731 150.085 58.2411 149.797 57.8811 149.425C57.5211 149.041 57.2451 148.579 57.0531 148.039C56.8611 147.499 56.7651 146.881 56.7651 146.185V145.681C56.7651 144.985 56.8611 144.367 57.0531 143.827C57.2451 143.275 57.5151 142.813 57.8631 142.441C58.2231 142.069 58.6491 141.787 59.1411 141.595C59.6451 141.391 60.2031 141.289 60.8151 141.289C61.4271 141.289 61.9791 141.391 62.4711 141.595C62.9751 141.787 63.4011 142.075 63.7491 142.459C64.1091 142.843 64.3851 143.311 64.5771 143.863C64.7691 144.415 64.8651 145.051 64.8651 145.771V146.419H58.4571C58.4811 147.271 58.6971 147.931 59.1051 148.399C59.5251 148.867 60.0951 149.101 60.8151 149.101C61.3911 149.101 61.8651 148.993 62.2371 148.777C62.6091 148.561 62.8911 148.213 63.0831 147.733H64.7751C64.5591 148.669 64.1151 149.377 63.4431 149.857C62.7831 150.337 61.9371 150.577 60.9051 150.577ZM60.8151 142.765C60.1311 142.765 59.5911 142.963 59.1951 143.359C58.7991 143.755 58.5591 144.331 58.4751 145.087H63.1731C63.0291 143.539 62.2431 142.765 60.8151 142.765ZM70.6258 150.577C69.3418 150.577 68.3278 150.199 67.5838 149.443C66.8518 148.687 66.4858 147.601 66.4858 146.185V145.681C66.4858 144.277 66.8578 143.197 67.6018 142.441C68.3458 141.673 69.3538 141.289 70.6258 141.289C71.9098 141.289 72.9178 141.667 73.6498 142.423C74.3938 143.179 74.7658 144.265 74.7658 145.681V146.185C74.7658 147.589 74.3938 148.675 73.6498 149.443C72.9058 150.199 71.8978 150.577 70.6258 150.577ZM70.6258 149.101C71.3818 149.101 71.9758 148.867 72.4078 148.399C72.8518 147.919 73.0738 147.181 73.0738 146.185V145.681C73.0738 144.697 72.8518 143.965 72.4078 143.485C71.9758 143.005 71.3818 142.765 70.6258 142.765C69.8698 142.765 69.2698 143.005 68.8258 143.485C68.3938 143.953 68.1778 144.685 68.1778 145.681V146.185C68.1778 147.169 68.3938 147.901 68.8258 148.381C69.2698 148.861 69.8698 149.101 70.6258 149.101ZM76.9223 141.433H78.5423V145.105H83.0423V141.433H84.6623V150.433H83.0423V146.581H78.5423V150.433H76.9223V141.433ZM89.7937 150.577C88.7737 150.577 88.0057 150.337 87.4897 149.857C86.9857 149.377 86.7337 148.723 86.7337 147.895C86.7337 146.995 87.0337 146.287 87.6337 145.771C88.2457 145.243 89.2357 144.979 90.6037 144.979H92.6737V144.493C92.6737 143.905 92.5177 143.473 92.2057 143.197C91.9057 142.909 91.4017 142.765 90.6937 142.765C90.0457 142.765 89.5717 142.879 89.2717 143.107C88.9717 143.323 88.7977 143.605 88.7497 143.953H87.0937C87.1177 143.581 87.2077 143.233 87.3637 142.909C87.5317 142.585 87.7657 142.303 88.0657 142.063C88.3657 141.823 88.7317 141.637 89.1637 141.505C89.6077 141.361 90.1177 141.289 90.6937 141.289C91.9297 141.289 92.8357 141.565 93.4117 142.117C93.9997 142.669 94.2937 143.491 94.2937 144.583V150.433H93.0337L92.8357 149.083H92.7997C92.0677 150.079 91.0657 150.577 89.7937 150.577ZM89.9737 149.101C90.3457 149.101 90.6937 149.041 91.0177 148.921C91.3537 148.789 91.6417 148.615 91.8817 148.399C92.1337 148.171 92.3257 147.913 92.4577 147.625C92.6017 147.325 92.6737 147.007 92.6737 146.671V146.347H90.6937C89.8537 146.347 89.2657 146.491 88.9297 146.779C88.5937 147.055 88.4257 147.421 88.4257 147.877C88.4257 148.237 88.5517 148.531 88.8037 148.759C89.0677 148.987 89.4577 149.101 89.9737 149.101ZM100.599 150.577C99.3146 150.577 98.3006 150.169 97.5566 149.353C96.8246 148.537 96.4586 147.271 96.4586 145.555V144.691C96.4586 144.031 96.4886 143.395 96.5486 142.783C96.6206 142.171 96.7406 141.613 96.9086 141.109C97.0766 140.593 97.2986 140.137 97.5746 139.741C97.8626 139.333 98.2226 139.003 98.6546 138.751C99.0386 138.523 99.4166 138.373 99.7886 138.301C100.173 138.229 100.575 138.181 100.995 138.157C101.415 138.121 101.865 138.079 102.345 138.031C102.837 137.983 103.389 137.869 104.001 137.689V139.147C103.545 139.315 103.101 139.423 102.669 139.471C102.249 139.507 101.841 139.537 101.445 139.561C101.049 139.585 100.677 139.627 100.329 139.687C99.9806 139.735 99.6626 139.849 99.3746 140.029C99.0026 140.281 98.6906 140.653 98.4386 141.145C98.1866 141.625 98.0186 142.201 97.9346 142.873H97.9706C98.2706 142.429 98.6786 142.087 99.1946 141.847C99.7226 141.595 100.293 141.469 100.905 141.469C101.481 141.469 102.003 141.565 102.471 141.757C102.951 141.949 103.353 142.231 103.677 142.603C104.013 142.963 104.271 143.413 104.451 143.953C104.643 144.481 104.739 145.087 104.739 145.771V146.275C104.739 147.631 104.367 148.687 103.623 149.443C102.879 150.199 101.871 150.577 100.599 150.577ZM100.599 149.101C101.355 149.101 101.949 148.867 102.381 148.399C102.825 147.931 103.047 147.223 103.047 146.275V145.771C103.047 144.835 102.825 144.133 102.381 143.665C101.937 143.185 101.343 142.945 100.599 142.945C99.8426 142.945 99.2426 143.179 98.7986 143.647C98.3666 144.115 98.1506 144.799 98.1506 145.699V146.203C98.1506 147.175 98.3726 147.901 98.8166 148.381C99.2726 148.861 99.8666 149.101 100.599 149.101ZM105.637 149.101H105.907C106.255 149.101 106.525 148.987 106.717 148.759C106.921 148.531 107.065 148.207 107.149 147.787C107.245 147.355 107.299 146.839 107.311 146.239C107.335 145.639 107.347 144.967 107.347 144.223V141.433H113.827V150.433H112.207V142.909H108.967V144.223C108.967 145.051 108.949 145.849 108.913 146.617C108.877 147.385 108.763 148.063 108.571 148.651C108.379 149.239 108.073 149.707 107.653 150.055C107.245 150.403 106.663 150.577 105.907 150.577H105.637V149.101ZM116.526 141.433H118.146V145.105H119.784C119.88 143.881 120.276 142.939 120.972 142.279C121.68 141.619 122.598 141.289 123.726 141.289C124.938 141.289 125.898 141.667 126.606 142.423C127.326 143.167 127.686 144.253 127.686 145.681V146.185C127.686 147.601 127.326 148.687 126.606 149.443C125.886 150.199 124.926 150.577 123.726 150.577C122.562 150.577 121.626 150.235 120.918 149.551C120.21 148.867 119.826 147.877 119.766 146.581H118.146V150.433H116.526V141.433ZM123.726 149.101C124.422 149.101 124.974 148.873 125.382 148.417C125.79 147.949 125.994 147.205 125.994 146.185V145.681C125.994 144.661 125.784 143.923 125.364 143.467C124.956 142.999 124.41 142.765 123.726 142.765C123.018 142.765 122.46 142.993 122.052 143.449C121.644 143.905 121.44 144.619 121.44 145.591V146.095C121.44 147.151 121.644 147.919 122.052 148.399C122.472 148.867 123.03 149.101 123.726 149.101ZM128.594 148.957H129.494C129.686 148.693 129.842 148.417 129.962 148.129C130.094 147.829 130.196 147.499 130.268 147.139C130.352 146.767 130.406 146.341 130.43 145.861C130.466 145.369 130.484 144.793 130.484 144.133V141.433H136.964V148.957H138.044V152.773H136.496V150.433H130.142V152.773H128.594V148.957ZM135.344 148.957V142.909H132.032V144.133C132.032 144.721 132.02 145.249 131.996 145.717C131.972 146.173 131.93 146.593 131.87 146.977C131.81 147.349 131.732 147.697 131.636 148.021C131.54 148.333 131.426 148.633 131.294 148.921V148.957H135.344ZM143.346 150.577C142.71 150.577 142.134 150.481 141.618 150.289C141.114 150.085 140.682 149.797 140.322 149.425C139.962 149.041 139.686 148.579 139.494 148.039C139.302 147.499 139.206 146.881 139.206 146.185V145.681C139.206 144.985 139.302 144.367 139.494 143.827C139.686 143.275 139.956 142.813 140.304 142.441C140.664 142.069 141.09 141.787 141.582 141.595C142.086 141.391 142.644 141.289 143.256 141.289C143.868 141.289 144.42 141.391 144.912 141.595C145.416 141.787 145.842 142.075 146.19 142.459C146.55 142.843 146.826 143.311 147.018 143.863C147.21 144.415 147.306 145.051 147.306 145.771V146.419H140.898C140.922 147.271 141.138 147.931 141.546 148.399C141.966 148.867 142.536 149.101 143.256 149.101C143.832 149.101 144.306 148.993 144.678 148.777C145.05 148.561 145.332 148.213 145.524 147.733H147.216C147 148.669 146.556 149.377 145.884 149.857C145.224 150.337 144.378 150.577 143.346 150.577ZM143.256 142.765C142.572 142.765 142.032 142.963 141.636 143.359C141.24 143.755 141 144.331 140.916 145.087H145.614C145.47 143.539 144.684 142.765 143.256 142.765ZM149.467 141.433H151.087V145.105H155.587V141.433H157.207V150.433H155.587V146.581H151.087V150.433H149.467V141.433ZM159.909 141.433H161.529V148.453H161.565L165.489 141.433H167.649V150.433H166.029V143.413H165.993L162.069 150.433H159.909V141.433ZM173.95 150.577C173.314 150.577 172.738 150.481 172.222 150.289C171.718 150.085 171.286 149.797 170.926 149.425C170.566 149.041 170.29 148.579 170.098 148.039C169.906 147.499 169.81 146.881 169.81 146.185V145.681C169.81 144.985 169.906 144.367 170.098 143.827C170.29 143.275 170.56 142.813 170.908 142.441C171.268 142.069 171.694 141.787 172.186 141.595C172.69 141.391 173.248 141.289 173.86 141.289C174.472 141.289 175.024 141.391 175.516 141.595C176.02 141.787 176.446 142.075 176.794 142.459C177.154 142.843 177.43 143.311 177.622 143.863C177.814 144.415 177.91 145.051 177.91 145.771V146.419H171.502C171.526 147.271 171.742 147.931 172.15 148.399C172.57 148.867 173.14 149.101 173.86 149.101C174.436 149.101 174.91 148.993 175.282 148.777C175.654 148.561 175.936 148.213 176.128 147.733H177.82C177.604 148.669 177.16 149.377 176.488 149.857C175.828 150.337 174.982 150.577 173.95 150.577ZM173.86 142.765C173.176 142.765 172.636 142.963 172.24 143.359C171.844 143.755 171.604 144.331 171.52 145.087H176.218C176.074 143.539 175.288 142.765 173.86 142.765Z" fill="#42526B"/>
<rect y="180.433" width="158" height="48" rx="8" fill="#EDF2F7"/>
<path d="M25.5787 197.833H28.0987L31.4647 205.249H31.5007L34.8667 197.833H37.2787V210.433H35.5867V199.813H35.5507L32.3287 206.923H30.5287L27.3067 199.813H27.2707V210.433H25.5787V197.833ZM42.4909 210.577C41.4709 210.577 40.7029 210.337 40.1869 209.857C39.6829 209.377 39.4309 208.723 39.4309 207.895C39.4309 206.995 39.7309 206.287 40.3309 205.771C40.9429 205.243 41.9329 204.979 43.3009 204.979H45.3709V204.493C45.3709 203.905 45.2149 203.473 44.9029 203.197C44.6029 202.909 44.0989 202.765 43.3909 202.765C42.7429 202.765 42.2689 202.879 41.9689 203.107C41.6689 203.323 41.4949 203.605 41.4469 203.953H39.7909C39.8149 203.581 39.9049 203.233 40.0609 202.909C40.2289 202.585 40.4629 202.303 40.7629 202.063C41.0629 201.823 41.4289 201.637 41.8609 201.505C42.3049 201.361 42.8149 201.289 43.3909 201.289C44.6269 201.289 45.5329 201.565 46.1089 202.117C46.6969 202.669 46.9909 203.491 46.9909 204.583V210.433H45.7309L45.5329 209.083H45.4969C44.7649 210.079 43.7629 210.577 42.4909 210.577ZM42.6709 209.101C43.0429 209.101 43.3909 209.041 43.7149 208.921C44.0509 208.789 44.3389 208.615 44.5789 208.399C44.8309 208.171 45.0229 207.913 45.1549 207.625C45.2989 207.325 45.3709 207.007 45.3709 206.671V206.347H43.3909C42.5509 206.347 41.9629 206.491 41.6269 206.779C41.2909 207.055 41.1229 207.421 41.1229 207.877C41.1229 208.237 41.2489 208.531 41.5009 208.759C41.7649 208.987 42.1549 209.101 42.6709 209.101ZM49.6059 201.433H50.8659L51.0459 202.693H51.0819C51.5019 202.189 51.9399 201.829 52.3959 201.613C52.8639 201.397 53.4219 201.289 54.0699 201.289C54.6099 201.289 55.1019 201.385 55.5459 201.577C55.9899 201.757 56.3739 202.033 56.6979 202.405C57.0219 202.765 57.2679 203.221 57.4359 203.773C57.6159 204.313 57.7059 204.949 57.7059 205.681V206.185C57.7059 206.905 57.6159 207.541 57.4359 208.093C57.2559 208.633 57.0039 209.089 56.6799 209.461C56.3559 209.833 55.9719 210.115 55.5279 210.307C55.0839 210.487 54.5979 210.577 54.0699 210.577C53.4579 210.577 52.9299 210.481 52.4859 210.289C52.0539 210.097 51.6459 209.785 51.2619 209.353H51.2259V214.033H49.6059V201.433ZM53.6199 209.101C54.3519 209.101 54.9339 208.867 55.3659 208.399C55.7979 207.919 56.0139 207.181 56.0139 206.185V205.681C56.0139 204.709 55.7919 203.983 55.3479 203.503C54.9159 203.011 54.3399 202.765 53.6199 202.765C52.8879 202.765 52.3059 203.005 51.8739 203.485C51.4419 203.953 51.2259 204.685 51.2259 205.681V206.185C51.2259 207.157 51.4419 207.889 51.8739 208.381C52.3179 208.861 52.8999 209.101 53.6199 209.101ZM59.8715 201.433H61.4915V205.015H62.7515L65.1995 201.433H67.0715L64.0295 205.699L67.4315 210.433H65.4875L62.7515 206.491H61.4915V210.433H59.8715V201.433ZM72.3836 210.577C71.7476 210.577 71.1716 210.481 70.6556 210.289C70.1516 210.085 69.7196 209.797 69.3596 209.425C68.9996 209.041 68.7236 208.579 68.5316 208.039C68.3396 207.499 68.2436 206.881 68.2436 206.185V205.681C68.2436 204.985 68.3396 204.367 68.5316 203.827C68.7236 203.275 68.9936 202.813 69.3416 202.441C69.7016 202.069 70.1276 201.787 70.6196 201.595C71.1236 201.391 71.6816 201.289 72.2936 201.289C72.9056 201.289 73.4576 201.391 73.9496 201.595C74.4536 201.787 74.8796 202.075 75.2276 202.459C75.5876 202.843 75.8636 203.311 76.0556 203.863C76.2476 204.415 76.3436 205.051 76.3436 205.771V206.419H69.9356C69.9596 207.271 70.1756 207.931 70.5836 208.399C71.0036 208.867 71.5736 209.101 72.2936 209.101C72.8696 209.101 73.3436 208.993 73.7156 208.777C74.0876 208.561 74.3696 208.213 74.5616 207.733H76.2536C76.0376 208.669 75.5936 209.377 74.9216 209.857C74.2616 210.337 73.4156 210.577 72.3836 210.577ZM72.2936 202.765C71.6096 202.765 71.0696 202.963 70.6736 203.359C70.2776 203.755 70.0376 204.331 69.9536 205.087H74.6516C74.5076 203.539 73.7216 202.765 72.2936 202.765ZM79.9527 202.909H77.0727V201.433H84.4527V202.909H81.5727V210.433H79.9527V202.909ZM86.0805 201.433H93.4605V210.433H91.8405V202.909H87.7005V210.433H86.0805V201.433ZM95.0727 209.101H95.3427C95.6907 209.101 95.9607 208.987 96.1527 208.759C96.3567 208.531 96.5007 208.207 96.5847 207.787C96.6807 207.355 96.7347 206.839 96.7467 206.239C96.7707 205.639 96.7827 204.967 96.7827 204.223V201.433H103.263V210.433H101.643V202.909H98.4027V204.223C98.4027 205.051 98.3847 205.849 98.3487 206.617C98.3127 207.385 98.1987 208.063 98.0067 208.651C97.8147 209.239 97.5087 209.707 97.0887 210.055C96.6807 210.403 96.0987 210.577 95.3427 210.577H95.0727V209.101ZM109.561 210.577C108.925 210.577 108.349 210.481 107.833 210.289C107.329 210.085 106.897 209.797 106.537 209.425C106.177 209.041 105.901 208.579 105.709 208.039C105.517 207.499 105.421 206.881 105.421 206.185V205.681C105.421 204.985 105.517 204.367 105.709 203.827C105.901 203.275 106.171 202.813 106.519 202.441C106.879 202.069 107.305 201.787 107.797 201.595C108.301 201.391 108.859 201.289 109.471 201.289C110.083 201.289 110.635 201.391 111.127 201.595C111.631 201.787 112.057 202.075 112.405 202.459C112.765 202.843 113.041 203.311 113.233 203.863C113.425 204.415 113.521 205.051 113.521 205.771V206.419H107.113C107.137 207.271 107.353 207.931 107.761 208.399C108.181 208.867 108.751 209.101 109.471 209.101C110.047 209.101 110.521 208.993 110.893 208.777C111.265 208.561 111.547 208.213 111.739 207.733H113.431C113.215 208.669 112.771 209.377 112.099 209.857C111.439 210.337 110.593 210.577 109.561 210.577ZM109.471 202.765C108.787 202.765 108.247 202.963 107.851 203.359C107.455 203.755 107.215 204.331 107.131 205.087H111.829C111.685 203.539 110.899 202.765 109.471 202.765ZM115.682 201.433H117.302V208.453H117.338L121.262 201.433H123.422V210.433H121.802V203.413H121.766L117.842 210.433H115.682V201.433ZM119.552 200.317C118.76 200.317 118.142 200.101 117.698 199.669C117.254 199.225 117.032 198.613 117.032 197.833H118.436C118.436 198.301 118.532 198.649 118.724 198.877C118.928 199.093 119.204 199.201 119.552 199.201C119.9 199.201 120.17 199.093 120.362 198.877C120.566 198.649 120.668 198.301 120.668 197.833H122.072C122.072 198.613 121.85 199.225 121.406 199.669C120.962 200.101 120.344 200.317 119.552 200.317ZM129.543 210.577C128.331 210.577 127.365 210.199 126.645 209.443C125.937 208.687 125.583 207.571 125.583 206.095V205.591C125.583 204.907 125.679 204.301 125.871 203.773C126.063 203.245 126.327 202.795 126.663 202.423C127.011 202.051 127.425 201.769 127.905 201.577C128.397 201.385 128.943 201.289 129.543 201.289C130.107 201.289 130.605 201.367 131.037 201.523C131.481 201.667 131.859 201.865 132.171 202.117C132.483 202.369 132.735 202.669 132.927 203.017C133.119 203.365 133.251 203.737 133.323 204.133H131.631C131.499 203.749 131.271 203.425 130.947 203.161C130.635 202.897 130.197 202.765 129.633 202.765C128.913 202.765 128.337 202.999 127.905 203.467C127.485 203.923 127.275 204.631 127.275 205.591V206.095C127.275 207.139 127.485 207.901 127.905 208.381C128.337 208.861 128.913 209.101 129.633 209.101C130.197 209.101 130.635 208.963 130.947 208.687C131.271 208.399 131.499 208.021 131.631 207.553H133.323C133.251 207.997 133.119 208.405 132.927 208.777C132.735 209.137 132.483 209.455 132.171 209.731C131.859 209.995 131.481 210.205 131.037 210.361C130.605 210.505 130.107 210.577 129.543 210.577Z" fill="#A0AEC0"/>
<rect x="170" y="180.433" width="146" height="48" rx="8" fill="#EDF2F7"/>
<path d="M194.809 208.885H195.889C196.153 208.525 196.363 208.159 196.519 207.787C196.687 207.415 196.813 206.977 196.897 206.473C196.993 205.957 197.059 205.345 197.095 204.637C197.131 203.917 197.149 203.029 197.149 201.973V197.833H205.429V208.885H206.599V213.133H204.979V210.433H196.429V213.133H194.809V208.885ZM203.737 208.885V199.381H198.841V201.973C198.841 202.969 198.823 203.827 198.787 204.547C198.763 205.255 198.715 205.873 198.643 206.401C198.571 206.929 198.469 207.391 198.337 207.787C198.217 208.171 198.061 208.537 197.869 208.885H203.737ZM212.003 210.577C210.719 210.577 209.705 210.199 208.961 209.443C208.229 208.687 207.863 207.601 207.863 206.185V205.681C207.863 204.277 208.235 203.197 208.979 202.441C209.723 201.673 210.731 201.289 212.003 201.289C213.287 201.289 214.295 201.667 215.027 202.423C215.771 203.179 216.143 204.265 216.143 205.681V206.185C216.143 207.589 215.771 208.675 215.027 209.443C214.283 210.199 213.275 210.577 212.003 210.577ZM212.003 209.101C212.759 209.101 213.353 208.867 213.785 208.399C214.229 207.919 214.451 207.181 214.451 206.185V205.681C214.451 204.697 214.229 203.965 213.785 203.485C213.353 203.005 212.759 202.765 212.003 202.765C211.247 202.765 210.647 203.005 210.203 203.485C209.771 203.953 209.555 204.685 209.555 205.681V206.185C209.555 207.169 209.771 207.901 210.203 208.381C210.647 208.861 211.247 209.101 212.003 209.101ZM218.299 201.433H220.711L223.105 206.563H223.141L225.535 201.433H227.839V210.433H226.219V203.413H226.183L223.879 208.363H222.259L219.955 203.413H219.919V210.433H218.299V201.433ZM234.134 210.577C232.85 210.577 231.836 210.199 231.092 209.443C230.36 208.687 229.994 207.601 229.994 206.185V205.681C229.994 204.277 230.366 203.197 231.11 202.441C231.854 201.673 232.862 201.289 234.134 201.289C235.418 201.289 236.426 201.667 237.158 202.423C237.902 203.179 238.274 204.265 238.274 205.681V206.185C238.274 207.589 237.902 208.675 237.158 209.443C236.414 210.199 235.406 210.577 234.134 210.577ZM234.134 209.101C234.89 209.101 235.484 208.867 235.916 208.399C236.36 207.919 236.582 207.181 236.582 206.185V205.681C236.582 204.697 236.36 203.965 235.916 203.485C235.484 203.005 234.89 202.765 234.134 202.765C233.378 202.765 232.778 203.005 232.334 203.485C231.902 203.953 231.686 204.685 231.686 205.681V206.185C231.686 207.169 231.902 207.901 232.334 208.381C232.778 208.861 233.378 209.101 234.134 209.101ZM244.57 210.577H243.94C243.328 210.577 242.77 210.481 242.266 210.289C241.774 210.085 241.348 209.797 240.988 209.425C240.64 209.041 240.37 208.579 240.178 208.039C239.986 207.499 239.89 206.881 239.89 206.185V205.681C239.89 204.997 239.986 204.385 240.178 203.845C240.382 203.305 240.658 202.849 241.006 202.477C241.366 202.093 241.792 201.799 242.284 201.595C242.788 201.391 243.34 201.289 243.94 201.289H244.57V197.833H246.19V201.289H246.82C247.432 201.289 247.984 201.391 248.476 201.595C248.98 201.787 249.406 202.075 249.754 202.459C250.114 202.831 250.39 203.287 250.582 203.827C250.774 204.367 250.87 204.985 250.87 205.681V206.185C250.87 206.869 250.768 207.487 250.564 208.039C250.372 208.579 250.096 209.041 249.736 209.425C249.388 209.797 248.962 210.085 248.458 210.289C247.966 210.481 247.42 210.577 246.82 210.577H246.19V214.033H244.57V210.577ZM249.178 205.681C249.178 204.709 248.956 203.983 248.512 203.503C248.08 203.011 247.516 202.765 246.82 202.765H246.19V209.101H246.82C247.54 209.101 248.11 208.867 248.53 208.399C248.962 207.919 249.178 207.181 249.178 206.185V205.681ZM241.582 206.185C241.582 207.157 241.798 207.889 242.23 208.381C242.674 208.861 243.244 209.101 243.94 209.101H244.57V202.765H243.94C243.22 202.765 242.644 203.005 242.212 203.485C241.792 203.953 241.582 204.685 241.582 205.681V206.185ZM256.634 210.577C255.35 210.577 254.336 210.199 253.592 209.443C252.86 208.687 252.494 207.601 252.494 206.185V205.681C252.494 204.277 252.866 203.197 253.61 202.441C254.354 201.673 255.362 201.289 256.634 201.289C257.918 201.289 258.926 201.667 259.658 202.423C260.402 203.179 260.774 204.265 260.774 205.681V206.185C260.774 207.589 260.402 208.675 259.658 209.443C258.914 210.199 257.906 210.577 256.634 210.577ZM256.634 209.101C257.39 209.101 257.984 208.867 258.416 208.399C258.86 207.919 259.082 207.181 259.082 206.185V205.681C259.082 204.697 258.86 203.965 258.416 203.485C257.984 203.005 257.39 202.765 256.634 202.765C255.878 202.765 255.278 203.005 254.834 203.485C254.402 203.953 254.186 204.685 254.186 205.681V206.185C254.186 207.169 254.402 207.901 254.834 208.381C255.278 208.861 255.878 209.101 256.634 209.101ZM262.93 201.433H264.55V205.105H269.05V201.433H270.67V210.433H269.05V206.581H264.55V210.433H262.93V201.433ZM273.371 201.433H274.991V208.453H275.027L278.951 201.433H281.111V210.433H279.491V203.413H279.455L275.531 210.433H273.371V201.433ZM285.019 206.977C284.443 206.749 284.023 206.419 283.759 205.987C283.495 205.555 283.363 205.021 283.363 204.385C283.363 203.449 283.657 202.723 284.245 202.207C284.833 201.691 285.799 201.433 287.143 201.433H290.203V210.433H288.583V207.301H287.143C287.047 207.301 286.951 207.301 286.855 207.301C286.759 207.301 286.663 207.295 286.567 207.283L284.803 210.433H283.003L285.019 206.977ZM285.055 204.385C285.055 204.853 285.211 205.213 285.523 205.465C285.835 205.705 286.405 205.825 287.233 205.825H288.583V202.909H287.233C286.393 202.909 285.817 203.035 285.505 203.287C285.205 203.527 285.055 203.893 285.055 204.385Z" fill="#A0AEC0"/>
</svg>
