<svg width="403" height="206" viewBox="0 0 403 206" fill="none" xmlns="http://www.w3.org/2000/svg">
<mask id="path-1-inside-1_576_2628" fill="white">
<path fill-rule="evenodd" clip-rule="evenodd" d="M0 16C0 7.16344 7.16345 0 16 0H178C186.837 0 194 7.16344 194 16V34C194 42.8366 201.163 50 210 50H387C395.837 50 403 57.1634 403 66V190C403 198.837 395.837 206 387 206H16C7.16345 206 0 198.837 0 190V108V66V16Z"/>
</mask>
<path fill-rule="evenodd" clip-rule="evenodd" d="M0 16C0 7.16344 7.16345 0 16 0H178C186.837 0 194 7.16344 194 16V34C194 42.8366 201.163 50 210 50H387C395.837 50 403 57.1634 403 66V190C403 198.837 395.837 206 387 206H16C7.16345 206 0 198.837 0 190V108V66V16Z" fill="white"/>
<path d="M178 -1H16V1H178V-1ZM195 34V16H193V34H195ZM193 34C193 43.3888 200.611 51 210 51V49C201.716 49 195 42.2843 195 34H193ZM387 49H210V51H387V49ZM404 66C404 56.6112 396.389 49 387 49V51C395.284 51 402 57.7157 402 66H404ZM404 190V66H402V190H404ZM387 207C396.389 207 404 199.389 404 190H402C402 198.284 395.284 205 387 205V207ZM16 207H387V205H16V207ZM-1 190C-1 199.389 6.61116 207 16 207V205C7.71573 205 1 198.284 1 190H-1ZM-1 108V190H1V108H-1ZM-1 66V108H1V66H-1ZM-1 16V66H1V16H-1ZM16 -1C6.61116 -1 -1 6.61116 -1 16H1C1 7.71573 7.71573 1 16 1V-1ZM178 1C186.284 1 193 7.71573 193 16H195C195 6.61116 187.389 -1 178 -1V1Z" fill="#136796" fill-opacity="0.4" mask="url(#path-1-inside-1_576_2628)"/>
</svg>
