<svg width="28" height="29" viewBox="0 0 28 29" fill="none" xmlns="http://www.w3.org/2000/svg">
<circle cx="14" cy="14.0391" r="14" fill="#0BC5EA"/>
<g clip-path="url(#clip0_819_218)">
<path d="M14 11.3723C13.4726 11.3723 12.957 11.5287 12.5185 11.8217C12.0799 12.1147 11.7381 12.5312 11.5363 13.0185C11.3345 13.5058 11.2817 14.0419 11.3846 14.5592C11.4874 15.0765 11.7414 15.5517 12.1144 15.9246C12.4873 16.2975 12.9625 16.5515 13.4797 16.6544C13.997 16.7573 14.5332 16.7045 15.0205 16.5027C15.5077 16.3008 15.9242 15.959 16.2172 15.5205C16.5103 15.082 16.6666 14.5664 16.6666 14.039C16.6666 13.3317 16.3857 12.6535 15.8856 12.1534C15.3855 11.6533 14.7072 11.3723 14 11.3723ZM14 15.3723C13.7363 15.3723 13.4785 15.2941 13.2592 15.1476C13.04 15.0011 12.8691 14.7929 12.7681 14.5492C12.6672 14.3056 12.6408 14.0375 12.6923 13.7789C12.7437 13.5202 12.8707 13.2826 13.0572 13.0962C13.2436 12.9097 13.4812 12.7827 13.7399 12.7313C13.9985 12.6798 14.2666 12.7062 14.5102 12.8071C14.7539 12.9081 14.9621 13.079 15.1086 13.2982C15.2551 13.5175 15.3333 13.7753 15.3333 14.039C15.3333 14.3926 15.1928 14.7317 14.9428 14.9818C14.6927 15.2318 14.3536 15.3723 14 15.3723Z" fill="white"/>
<path d="M20.196 15.3057L19.9 15.1351C20.0333 14.41 20.0333 13.6668 19.9 12.9417L20.196 12.7711C20.4237 12.6397 20.6232 12.4649 20.7832 12.2564C20.9433 12.048 21.0607 11.8101 21.1288 11.5563C21.1969 11.3025 21.2143 11.0377 21.1801 10.7772C21.1459 10.5166 21.0607 10.2654 20.9294 10.0377C20.798 9.8101 20.6232 9.61057 20.4147 9.45053C20.2063 9.29049 19.9684 9.17307 19.7146 9.10497C19.4608 9.03687 19.196 9.01944 18.9355 9.05365C18.6749 9.08787 18.4237 9.17307 18.196 9.3044L17.8994 9.47573C17.3391 8.99701 16.6951 8.62589 16 8.38106V8.03906C16 7.50863 15.7893 6.99992 15.4142 6.62485C15.0392 6.24978 14.5305 6.03906 14 6.03906C13.4696 6.03906 12.9609 6.24978 12.5858 6.62485C12.2107 6.99992 12 7.50863 12 8.03906V8.38106C11.305 8.62677 10.6613 8.9988 10.1014 9.4784L9.80336 9.30573C9.34365 9.04051 8.79742 8.96878 8.28482 9.1063C7.77222 9.24383 7.33525 9.57935 7.07003 10.0391C6.80481 10.4988 6.73308 11.045 6.8706 11.5576C7.00813 12.0702 7.34365 12.5072 7.80336 12.7724L8.09936 12.9431C7.9661 13.6681 7.9661 14.4114 8.09936 15.1364L7.80336 15.3071C7.34365 15.5723 7.00813 16.0093 6.8706 16.5219C6.73308 17.0345 6.80481 17.5807 7.07003 18.0404C7.33525 18.5001 7.77222 18.8356 8.28482 18.9732C8.79742 19.1107 9.34365 19.0389 9.80336 18.7737L10.1 18.6024C10.6605 19.0812 11.3047 19.4523 12 19.6971V20.0391C12 20.5695 12.2107 21.0782 12.5858 21.4533C12.9609 21.8283 13.4696 22.0391 14 22.0391C14.5305 22.0391 15.0392 21.8283 15.4142 21.4533C15.7893 21.0782 16 20.5695 16 20.0391V19.6971C16.6951 19.4514 17.3388 19.0793 17.8987 18.5997L18.1967 18.7717C18.6564 19.0369 19.2026 19.1087 19.7152 18.9712C20.2278 18.8336 20.6648 18.4981 20.93 18.0384C21.1952 17.5787 21.267 17.0325 21.1295 16.5199C20.9919 16.0073 20.6564 15.5703 20.1967 15.3051L20.196 15.3057ZM18.4974 12.7884C18.7231 13.6064 18.7231 14.4704 18.4974 15.2884C18.4579 15.4308 18.4669 15.5822 18.5229 15.7189C18.5789 15.8557 18.6787 15.9699 18.8067 16.0437L19.5294 16.4611C19.6826 16.5495 19.7944 16.6951 19.8402 16.866C19.886 17.0368 19.8621 17.2189 19.7737 17.3721C19.6853 17.5253 19.5396 17.6371 19.3688 17.6829C19.198 17.7287 19.0159 17.7048 18.8627 17.6164L18.1387 17.1977C18.0106 17.1236 17.8615 17.0941 17.7149 17.114C17.5682 17.1339 17.4323 17.2021 17.3287 17.3077C16.7353 17.9135 15.9877 18.3457 15.1667 18.5577C15.0234 18.5946 14.8964 18.6781 14.8058 18.795C14.7151 18.912 14.666 19.0558 14.666 19.2037V20.0391C14.666 20.2159 14.5958 20.3854 14.4708 20.5105C14.3457 20.6355 14.1762 20.7057 13.9994 20.7057C13.8226 20.7057 13.653 20.6355 13.528 20.5105C13.4029 20.3854 13.3327 20.2159 13.3327 20.0391V19.2044C13.3328 19.0564 13.2836 18.9126 13.193 18.7957C13.1023 18.6787 12.9753 18.5952 12.832 18.5584C12.0109 18.3455 11.2636 17.9124 10.6707 17.3057C10.567 17.2001 10.4312 17.1319 10.2845 17.112C10.1379 17.0921 9.98877 17.1216 9.8607 17.1957L9.13803 17.6137C9.06218 17.6582 8.97829 17.6872 8.89118 17.6991C8.80407 17.711 8.71546 17.7056 8.63046 17.6831C8.54546 17.6607 8.46575 17.6216 8.39591 17.5682C8.32607 17.5148 8.26748 17.4481 8.22352 17.3719C8.17956 17.2958 8.15109 17.2117 8.13976 17.1245C8.12843 17.0374 8.13445 16.9488 8.15749 16.8639C8.18052 16.7791 8.22012 16.6996 8.27398 16.6301C8.32785 16.5607 8.39493 16.5025 8.47136 16.4591L9.19403 16.0417C9.32199 15.9679 9.42181 15.8537 9.4778 15.7169C9.53379 15.5802 9.54278 15.4288 9.50336 15.2864C9.2776 14.4684 9.2776 13.6044 9.50336 12.7864C9.54207 12.6443 9.53265 12.4934 9.47657 12.3573C9.42049 12.2211 9.32091 12.1073 9.19336 12.0337L8.4707 11.6164C8.31749 11.528 8.20568 11.3823 8.15985 11.2115C8.11403 11.0407 8.13796 10.8586 8.22636 10.7054C8.31477 10.5522 8.46041 10.4404 8.63126 10.3946C8.8021 10.3487 8.98415 10.3727 9.13736 10.4611L9.86136 10.8797C9.98908 10.9541 10.1379 10.9839 10.2844 10.9644C10.4309 10.945 10.5668 10.8775 10.6707 10.7724C11.2641 10.1666 12.0116 9.73441 12.8327 9.5224C12.9764 9.48544 13.1038 9.40156 13.1945 9.28406C13.2851 9.16656 13.334 9.02216 13.3334 8.87373V8.03906C13.3334 7.86225 13.4036 7.69268 13.5286 7.56766C13.6536 7.44263 13.8232 7.3724 14 7.3724C14.1768 7.3724 14.3464 7.44263 14.4714 7.56766C14.5965 7.69268 14.6667 7.86225 14.6667 8.03906V8.87373C14.6666 9.0217 14.7158 9.16549 14.8064 9.28245C14.8971 9.39941 15.0241 9.48288 15.1674 9.51973C15.9887 9.7325 16.7363 10.1657 17.3294 10.7724C17.433 10.878 17.5689 10.9462 17.7155 10.9661C17.8622 10.986 18.0113 10.9566 18.1394 10.8824L18.862 10.4644C18.9379 10.4199 19.0218 10.3909 19.1089 10.379C19.196 10.3671 19.2846 10.3725 19.3696 10.395C19.4546 10.4175 19.5343 10.4565 19.6041 10.5099C19.674 10.5633 19.7326 10.63 19.7765 10.7062C19.8205 10.7823 19.849 10.8664 19.8603 10.9536C19.8716 11.0408 19.8656 11.1293 19.8426 11.2142C19.8195 11.299 19.7799 11.3785 19.7261 11.448C19.6722 11.5175 19.6051 11.5756 19.5287 11.6191L18.806 12.0364C18.6787 12.1102 18.5794 12.224 18.5236 12.3602C18.4678 12.4963 18.4585 12.6471 18.4974 12.7891V12.7884Z" fill="white"/>
</g>
<defs>
<clipPath id="clip0_819_218">
<rect width="16" height="16" fill="white" transform="translate(6 6.03906)"/>
</clipPath>
</defs>
</svg>
