<svg width="177" height="52" viewBox="0 0 177 52" fill="none" xmlns="http://www.w3.org/2000/svg">
<g clip-path="url(#clip0_245_18978)">
<path fill-rule="evenodd" clip-rule="evenodd" d="M132.503 37.9707C132.503 45.5557 126.405 51.7057 118.885 51.7057C111.364 51.7057 105.267 45.5557 105.267 37.9707H112.695C112.695 41.4192 115.466 44.214 118.885 44.214C122.303 44.214 125.075 41.4192 125.075 37.9707H132.503ZM118.885 18.0062C122.303 18.0062 125.075 20.8011 125.075 24.2494C125.075 27.6963 122.303 30.4912 118.885 30.4912C115.466 30.4912 112.695 27.6963 112.695 24.2494C112.695 20.8011 115.466 18.0062 118.885 18.0062ZM118.885 10.5161C126.405 10.5161 132.503 16.6645 132.503 24.2494C132.503 31.8344 126.405 37.9829 118.885 37.9829C111.364 37.9829 105.267 31.8344 105.267 24.2494C105.267 16.6645 111.364 10.5161 118.885 10.5161ZM88.6631 10.5161C96.0858 10.5161 102.103 16.5847 102.103 24.0703V37.626H88.6631C81.2389 37.626 75.2213 31.5574 75.2213 24.0703C75.2213 16.5847 81.2389 10.5161 88.6631 10.5161ZM88.6631 17.8285C92.0811 17.8285 94.8524 20.6233 94.8524 24.0703C94.8524 27.5187 92.0811 30.3135 88.6631 30.3135C85.2437 30.3135 82.4724 27.5187 82.4724 24.0703C82.4724 20.6233 85.2437 17.8285 88.6631 17.8285ZM45.5143 10.8715H58.7783C66.1039 10.8715 72.0424 16.8617 72.0424 24.2494V37.626H64.6152V23.7133C64.6152 20.4637 62.0022 17.8285 58.7783 17.8285C55.5545 17.8285 52.943 20.4637 52.943 23.7133V37.626H45.5173L45.5143 10.8715Z" fill="#42526B"/>
<path fill-rule="evenodd" clip-rule="evenodd" d="M127.462 3.47934C128.727 3.47934 129.754 4.51388 129.754 5.78934C129.754 7.0663 128.727 8.09929 127.462 8.09929C126.196 8.09929 125.171 7.0663 125.171 5.78934C125.171 4.51388 126.196 3.47934 127.462 3.47934ZM127.462 0.705566C130.245 0.705566 132.502 2.98242 132.502 5.78934C132.502 8.59625 130.245 10.8731 127.462 10.8731C124.678 10.8731 122.422 8.59625 122.422 5.78934C122.422 2.98242 124.678 0.705566 127.462 0.705566Z" fill="#42526B"/>
</g>
<defs>
<clipPath id="clip0_245_18978">
<rect width="177" height="51" fill="white" transform="translate(0 0.705566)"/>
</clipPath>
</defs>
</svg>
