<svg width="20" height="20" viewBox="0 0 20 20" fill="none" xmlns="http://www.w3.org/2000/svg">
<path d="M14.1667 1.66668L15.8334 1.66668C17.2141 1.66668 18.3334 2.78598 18.3334 4.16668L18.3334 15.8333C18.3334 17.214 17.2141 18.3333 15.8334 18.3333L14.1667 18.3333C13.7064 18.3333 13.3334 18.7064 13.3334 19.1666C13.3334 19.6269 13.7064 20 14.1667 20L15.8334 20C18.1334 19.9972 19.9972 18.1334 20 15.8333L20 4.16664C19.9972 1.86664 18.1334 0.00273497 15.8333 -3.64263e-07L14.1666 -5.09968e-07C13.7064 -5.50203e-07 13.3333 0.373086 13.3333 0.83332C13.3333 1.29355 13.7064 1.66668 14.1667 1.66668Z" fill="#00A3C4"/>
<path d="M0.833322 10.8333L13.9808 10.8066C13.9077 10.9423 13.8163 11.0674 13.7091 11.1783L10.4766 14.4108C10.1456 14.7305 10.1364 15.2581 10.4561 15.5891C10.7759 15.9201 11.3034 15.9293 11.6345 15.6096C11.6414 15.6029 11.6482 15.596 11.655 15.5891L14.8891 12.3566C16.1904 11.0549 16.1904 8.9449 14.8891 7.64326L11.6566 4.41076C11.3369 4.07971 10.8093 4.07057 10.4783 4.39029C10.1473 4.71002 10.1381 5.2376 10.4579 5.56861C10.4646 5.57557 10.4714 5.5824 10.4783 5.58908L13.7108 8.82158C13.8041 8.91764 13.8855 9.02451 13.9533 9.1399L0.833322 9.16658C0.373088 9.16658 1.50477e-06 9.53967 1.46454e-06 9.9999C1.4243e-06 10.4602 0.373087 10.8333 0.833322 10.8333Z" fill="#00A3C4"/>
</svg>
