<svg width="1724" height="1723" viewBox="0 0 1724 1723" fill="none" xmlns="http://www.w3.org/2000/svg">
<g opacity="0.3">
<ellipse opacity="0.1" cx="862" cy="861.594" rx="860" ry="859.594" fill="white" stroke="#0BC5EA" stroke-width="3" stroke-miterlimit="4.62023" stroke-linecap="round" stroke-dasharray="35 50 15 15"/>
<path opacity="0.1" d="M1654.72 861.594C1654.72 1299.18 1299.81 1653.91 862 1653.91C424.192 1653.91 69.2791 1299.18 69.2791 861.594C69.2791 424.011 424.192 69.2791 862 69.2791C1299.81 69.2791 1654.72 424.011 1654.72 861.594Z" fill="white" stroke="#0BC5EA" stroke-width="3"/>
<ellipse opacity="0.2" cx="862" cy="861.594" rx="727.63" ry="727.224" fill="white" stroke="#0BC5EA" stroke-width="3" stroke-miterlimit="4.62023" stroke-linecap="round" stroke-dasharray="35 50 15 15"/>
<path opacity="0.3" d="M1523.16 861.594C1523.16 1226.52 1227.15 1522.35 862 1522.35C496.849 1522.35 200.837 1226.52 200.837 861.594C200.837 496.669 496.849 200.837 862 200.837C1227.15 200.837 1523.16 496.669 1523.16 861.594Z" fill="white" stroke="#0BC5EA" stroke-width="3"/>
<ellipse opacity="0.4" cx="862" cy="861.594" rx="596.072" ry="595.666" fill="white" stroke="#0BC5EA" stroke-width="3" stroke-miterlimit="4.62023" stroke-linecap="round" stroke-dasharray="35 50 15 15"/>
<path opacity="0.5" d="M1389.17 861.594C1389.17 1152.52 1153.15 1388.36 862 1388.36C570.852 1388.36 334.831 1152.52 334.831 861.594C334.831 570.672 570.852 334.831 862 334.831C1153.15 334.831 1389.17 570.672 1389.17 861.594Z" fill="white" stroke="#0BC5EA" stroke-width="3"/>
<path opacity="0.6" d="M1317.71 861.594C1317.71 1117.08 1110.41 1324.2 854.691 1324.2C598.975 1324.2 391.677 1117.08 391.677 861.594C391.677 606.104 598.975 398.986 854.691 398.986C1110.41 398.986 1317.71 606.104 1317.71 861.594Z" fill="white" stroke="#0BC5EA" stroke-width="3"/>
<ellipse opacity="0.7" cx="862" cy="861.594" rx="401.983" ry="401.577" fill="white" stroke="#0BC5EA" stroke-width="3" stroke-miterlimit="4.62023" stroke-linecap="round" stroke-dasharray="35 50 15 15"/>
<path opacity="0.8" d="M1192.64 861.594C1192.64 1043.98 1044.61 1191.83 862 1191.83C679.389 1191.83 531.356 1043.98 531.356 861.594C531.356 679.211 679.389 531.356 862 531.356C1044.61 531.356 1192.64 679.211 1192.64 861.594Z" fill="white" stroke="#0BC5EA" stroke-width="3"/>
<ellipse opacity="0.9" cx="862" cy="861.594" rx="255.807" ry="255.401" fill="white" stroke="#0BC5EA" stroke-width="3" stroke-miterlimit="4.62023" stroke-linecap="round" stroke-dasharray="35 50 15 15"/>
<ellipse cx="862.001" cy="861.595" rx="122.625" ry="122.219" fill="white" stroke="#0BC5EA" stroke-width="3" stroke-miterlimit="4.62023" stroke-linecap="round" stroke-dasharray="35 50 15 15"/>
</g>
</svg>
