<svg width="164" height="18" viewBox="0 0 164 18" fill="none" xmlns="http://www.w3.org/2000/svg">
<path d="M41.1622 5.06019C41.0778 4.29747 40.7296 3.70663 40.1177 3.28768C39.5058 2.86335 38.7356 2.65119 37.8072 2.65119C37.1425 2.65119 36.5675 2.75861 36.0822 2.97346C35.5969 3.18294 35.2197 3.47299 34.9507 3.8436C34.6869 4.20885 34.5551 4.62512 34.5551 5.09242C34.5551 5.48452 34.6447 5.82291 34.8241 6.10758C35.0087 6.39226 35.2487 6.63128 35.5442 6.82464C35.8448 7.01264 36.1666 7.17109 36.5095 7.3C36.8524 7.42354 37.1821 7.52559 37.4986 7.60616L39.0812 8.02512C39.5981 8.15403 40.1283 8.32859 40.6716 8.54881C41.215 8.76904 41.7187 9.05908 42.183 9.41896C42.6472 9.77883 43.0217 10.2246 43.3066 10.7564C43.5967 11.2882 43.7418 11.9246 43.7418 12.6659C43.7418 13.6005 43.5044 14.4303 43.0296 15.1554C42.5601 15.8806 41.877 16.4526 40.9802 16.8716C40.0887 17.2905 39.0099 17.5 37.7439 17.5C36.5306 17.5 35.4809 17.3039 34.5946 16.9118C33.7084 16.5197 33.0147 15.9638 32.5136 15.2441C32.0124 14.519 31.7355 13.6596 31.6827 12.6659H34.1357C34.1832 13.2621 34.3731 13.7589 34.7054 14.1564C35.043 14.5485 35.4729 14.8412 35.9952 15.0346C36.5227 15.2226 37.1003 15.3166 37.7281 15.3166C38.4191 15.3166 39.0337 15.2065 39.5718 14.9863C40.1151 14.7607 40.5424 14.4491 40.8536 14.0517C41.1649 13.6488 41.3205 13.1788 41.3205 12.6417C41.3205 12.1529 41.1833 11.7528 40.909 11.4412C40.64 11.1297 40.2733 10.8719 39.8091 10.6678C39.3502 10.4637 38.8306 10.2837 38.2503 10.128L36.3354 9.59621C35.0377 9.23634 34.0091 8.70727 33.2494 8.009C32.4951 7.31074 32.1179 6.38689 32.1179 5.23744C32.1179 4.28673 32.3711 3.45687 32.8775 2.74787C33.384 2.03886 34.0697 1.48831 34.9349 1.09621C35.8 0.698736 36.7759 0.5 37.8626 0.5C38.9598 0.5 39.9278 0.696051 40.7666 1.08815C41.6106 1.48025 42.2753 2.02006 42.7606 2.70758C43.2459 3.38973 43.4991 4.17393 43.5202 5.06019H41.1622Z" fill="#2D3748"/>
<path d="M46.6636 0.725592H49.6308L54.79 13.5521H54.9799L60.139 0.725592H63.1063V17.2261H60.7799V5.28578H60.6296L55.8503 17.2019H53.9196L49.1403 5.27772H48.9899V17.2261H46.6636V0.725592Z" fill="#2D3748"/>
<path d="M69.1062 0.725592V17.2261H66.6611V0.725592H69.1062Z" fill="#2D3748"/>
<path d="M85.7467 0.725592V17.2261H83.4995L75.2623 5.12464H75.1119V17.2261H72.6669V0.725592H74.93L83.175 12.8431H83.3254V0.725592H85.7467Z" fill="#2D3748"/>
<path d="M89.3134 17.2261V0.725592H91.7584V7.89621H99.8374V0.725592H102.29V17.2261H99.8374V10.0313H91.7584V17.2261H89.3134Z" fill="#2D3748"/>
<path d="M119.928 8.97583C119.928 10.7376 119.611 12.2523 118.978 13.5199C118.345 14.7821 117.478 15.7543 116.375 16.4365C115.278 17.1133 114.03 17.4517 112.632 17.4517C111.229 17.4517 109.976 17.1133 108.874 16.4365C107.777 15.7543 106.911 14.7795 106.278 13.5118C105.645 12.2442 105.329 10.7322 105.329 8.97583C105.329 7.21406 105.645 5.70205 106.278 4.43981C106.911 3.1722 107.777 2.2 108.874 1.52322C109.976 0.841074 111.229 0.5 112.632 0.5C114.03 0.5 115.278 0.841074 116.375 1.52322C117.478 2.2 118.345 3.1722 118.978 4.43981C119.611 5.70205 119.928 7.21406 119.928 8.97583ZM117.507 8.97583C117.507 7.63302 117.293 6.50237 116.866 5.58389C116.444 4.66003 115.863 3.96177 115.125 3.4891C114.392 3.01106 113.561 2.77204 112.632 2.77204C111.699 2.77204 110.865 3.01106 110.132 3.4891C109.399 3.96177 108.818 4.66003 108.391 5.58389C107.969 6.50237 107.758 7.63302 107.758 8.97583C107.758 10.3186 107.969 11.452 108.391 12.3758C108.818 13.2943 109.399 13.9926 110.132 14.4706C110.865 14.9433 111.699 15.1796 112.632 15.1796C113.561 15.1796 114.392 14.9433 115.125 14.4706C115.863 13.9926 116.444 13.2943 116.866 12.3758C117.293 11.452 117.507 10.3186 117.507 8.97583Z" fill="#2D3748"/>
<path d="M133.397 0.725592H135.85V11.5782C135.85 12.733 135.584 13.7562 135.051 14.6479C134.518 15.5341 133.769 16.2324 132.804 16.7427C131.839 17.2476 130.707 17.5 129.409 17.5C128.117 17.5 126.988 17.2476 126.023 16.7427C125.057 16.2324 124.308 15.5341 123.775 14.6479C123.243 13.7562 122.976 12.733 122.976 11.5782V0.725592H125.421V11.3768C125.421 12.1234 125.582 12.7867 125.904 13.3668C126.231 13.9469 126.693 14.4035 127.289 14.7365C127.885 15.0641 128.592 15.228 129.409 15.228C130.232 15.228 130.942 15.0641 131.538 14.7365C132.139 14.4035 132.598 13.9469 132.915 13.3668C133.236 12.7867 133.397 12.1234 133.397 11.3768V0.725592Z" fill="#2D3748"/>
<path d="M148.244 5.06019C148.159 4.29747 147.811 3.70663 147.199 3.28768C146.587 2.86335 145.817 2.65119 144.889 2.65119C144.224 2.65119 143.649 2.75861 143.164 2.97346C142.678 3.18294 142.301 3.47299 142.032 3.8436C141.768 4.20885 141.637 4.62512 141.637 5.09242C141.637 5.48452 141.726 5.82291 141.906 6.10758C142.09 6.39226 142.33 6.63128 142.626 6.82464C142.926 7.01264 143.248 7.17109 143.591 7.3C143.934 7.42354 144.264 7.52559 144.58 7.60616L146.163 8.02512C146.68 8.15403 147.21 8.32859 147.753 8.54881C148.296 8.76904 148.8 9.05908 149.264 9.41896C149.729 9.77883 150.103 10.2246 150.388 10.7564C150.678 11.2882 150.823 11.9246 150.823 12.6659C150.823 13.6005 150.586 14.4303 150.111 15.1554C149.642 15.8806 148.959 16.4526 148.062 16.8716C147.17 17.2905 146.091 17.5 144.825 17.5C143.612 17.5 142.562 17.3039 141.676 16.9118C140.79 16.5197 140.096 15.9638 139.595 15.2441C139.094 14.519 138.817 13.6596 138.764 12.6659H141.217C141.265 13.2621 141.455 13.7589 141.787 14.1564C142.125 14.5485 142.554 14.8412 143.077 15.0346C143.604 15.2226 144.182 15.3166 144.81 15.3166C145.501 15.3166 146.115 15.2065 146.653 14.9863C147.197 14.7607 147.624 14.4491 147.935 14.0517C148.246 13.6488 148.402 13.1788 148.402 12.6417C148.402 12.1529 148.265 11.7528 147.991 11.4412C147.721 11.1297 147.355 10.8719 146.891 10.6678C146.432 10.4637 145.912 10.2837 145.332 10.128L143.417 9.59621C142.119 9.23634 141.091 8.70727 140.331 8.009C139.577 7.31074 139.199 6.38689 139.199 5.23744C139.199 4.28673 139.453 3.45687 139.959 2.74787C140.465 2.03886 141.151 1.48831 142.016 1.09621C142.882 0.698736 143.857 0.5 144.944 0.5C146.041 0.5 147.009 0.696051 147.848 1.08815C148.692 1.48025 149.357 2.02006 149.842 2.70758C150.327 3.38973 150.581 4.17393 150.602 5.06019H148.244Z" fill="#2D3748"/>
<path d="M153.745 17.2261V0.725592H163.905V2.86872H156.19V7.89621H163.375V10.0313H156.19V15.0829H164V17.2261H153.745Z" fill="#2D3748"/>
<path d="M2.93928 11.6383L4.24224 9.454C4.40998 9.17121 4.69902 9.00219 5.00904 9.00219H9.87791C10.1834 9.00219 10.468 8.83641 10.6372 8.56013L12.0285 6.29619C12.1978 6.01991 12.4823 5.85413 12.7879 5.85413H21.3949C21.6375 5.85413 21.7828 6.1483 21.648 6.3677L20.3016 8.5585C20.1323 8.83479 19.8478 9.00056 19.5423 9.00056H14.3933C14.0833 9.00056 13.7958 9.17121 13.6265 9.45237L12.2891 11.6936C12.1214 11.9763 11.8324 12.1454 11.5223 12.1454H3.19538C2.95426 12.147 2.80899 11.8577 2.93928 11.6383Z" fill="#0BC5EA"/>
<path d="M8.91144 6.79286H6.10334C5.86072 6.79286 5.71545 6.49869 5.85024 6.27928L9.1301 0.94206C9.29934 0.665773 9.58389 0.5 9.88941 0.5H24.2953C24.538 0.5 24.6832 0.794165 24.5484 1.01357L23.2021 3.20437C23.0328 3.48066 22.7483 3.64643 22.4427 3.64643H11.8229C11.5174 3.64643 11.2328 3.8122 11.0636 4.08849L9.67225 6.35242C9.50152 6.62708 9.21696 6.79286 8.91144 6.79286Z" fill="#0BC5EA"/>
<path d="M15.6886 11.2071H18.4967C18.7393 11.2071 18.8846 11.5013 18.7498 11.7207L15.4699 17.0579C15.3007 17.3342 15.0161 17.5 14.7106 17.5H0.304661C0.0620415 17.5 -0.0832313 17.2058 0.0515575 16.9864L1.39795 14.7956C1.56719 14.5193 1.85174 14.3536 2.15726 14.3536H12.7771C13.0826 14.3536 13.3672 14.1878 13.5364 13.9115L14.9278 11.6476C15.0985 11.3729 15.383 11.2071 15.6886 11.2071Z" fill="#0BC5EA"/>
</svg>
