<svg width="1100" height="1103" viewBox="0 0 1100 1103" fill="none" xmlns="http://www.w3.org/2000/svg">
<g opacity="0.15">
<ellipse opacity="0.1" cx="550.017" cy="551.572" rx="548.017" ry="549.572" stroke="#3A495E" stroke-width="2.25043" stroke-miterlimit="4.62023" stroke-linecap="round" stroke-dasharray="26.26 37.51 11.25 11.25"/>
<path opacity="0.1" d="M1054.47 551.737C1054.47 831.413 828.379 1058.13 549.492 1058.13C270.604 1058.13 44.5158 831.413 44.5158 551.737C44.5158 272.061 270.604 45.3449 549.492 45.3449C828.379 45.3449 1054.47 272.061 1054.47 551.737Z" stroke="#3A495E" stroke-width="2.25043"/>
<ellipse opacity="0.2" cx="549.829" cy="551.383" rx="463.667" ry="464.943" stroke="#3A495E" stroke-width="2.25043" stroke-miterlimit="4.62023" stroke-linecap="round" stroke-dasharray="26.26 37.51 11.25 11.25"/>
<path opacity="0.3" d="M970.964 551.375C970.964 784.598 782.409 973.657 549.821 973.657C317.233 973.657 128.678 784.598 128.678 551.375C128.678 318.153 317.233 129.093 549.821 129.093C782.409 129.093 970.964 318.153 970.964 551.375Z" stroke="#3A495E" stroke-width="2.25043"/>
<ellipse opacity="0.4" cx="550.159" cy="551.714" rx="379.834" ry="380.833" stroke="#3A495E" stroke-width="2.25043" stroke-miterlimit="4.62023" stroke-linecap="round" stroke-dasharray="26.26 37.51 11.25 11.25"/>
<path opacity="0.5" d="M885.735 551.532C885.735 737.442 735.408 888.146 549.977 888.146C364.546 888.146 214.219 737.442 214.219 551.532C214.219 365.623 364.546 214.918 549.977 214.918C735.408 214.918 885.735 365.623 885.735 551.532Z" stroke="#3A495E" stroke-width="2.25043"/>
<path opacity="0.6" d="M844.673 551.351C844.673 714.607 712.65 846.948 549.797 846.948C386.943 846.948 254.92 714.607 254.92 551.351C254.92 388.094 386.943 255.754 549.797 255.754C712.65 255.754 844.673 388.094 844.673 551.351Z" stroke="#3A495E" stroke-width="2.25043"/>
<ellipse opacity="0.7" cx="549.962" cy="551.516" rx="256.155" ry="256.744" stroke="#3A495E" stroke-width="2.25043" stroke-miterlimit="4.62023" stroke-linecap="round" stroke-dasharray="26.26 37.51 11.25 11.25"/>
<path opacity="0.8" d="M760.135 551.854C760.135 668.371 665.877 762.822 549.609 762.822C433.34 762.822 339.082 668.371 339.082 551.854C339.082 435.338 433.34 340.886 549.609 340.886C665.877 340.886 760.135 435.338 760.135 551.854Z" stroke="#3A495E" stroke-width="2.25043"/>
<ellipse opacity="0.9" cx="549.944" cy="551.499" rx="163.008" ry="163.288" stroke="#3A495E" stroke-width="2.25043" stroke-miterlimit="4.62023" stroke-linecap="round" stroke-dasharray="26.26 37.51 11.25 11.25"/>
<path d="M664.9 551.836C664.9 615.59 613.273 667.271 549.591 667.271C485.908 667.271 434.281 615.59 434.281 551.836C434.281 488.081 485.908 436.401 549.591 436.401C613.273 436.401 664.9 488.081 664.9 551.836Z" stroke="#3A495E" stroke-width="2.25043"/>
<ellipse cx="549.927" cy="551.482" rx="78.1403" ry="78.1395" stroke="#3A495E" stroke-width="2.25043" stroke-miterlimit="4.62023" stroke-linecap="round" stroke-dasharray="26.26 37.51 11.25 11.25"/>
</g>
</svg>
