<svg width="20" height="20" viewBox="0 0 20 20" fill="none" xmlns="http://www.w3.org/2000/svg">
<path d="M15.8333 3.33333H14.9158C14.5283 1.43417 12.845 0 10.8333 0H4.16667C1.86917 0 0 1.86917 0 4.16667V14.8783C0 15.54 0.3625 16.145 0.945 16.4567C1.21 16.5992 1.50083 16.6692 1.79083 16.6692C2.1375 16.6692 2.48333 16.5683 2.7825 16.3692L5.24083 14.73C5.81667 16.3425 7.35833 17.5 9.16667 17.5H13.9142L17.2175 19.7025C17.5175 19.9025 17.8625 20.0033 18.2092 20.0033C18.4992 20.0033 18.7892 19.9325 19.055 19.79C19.6383 19.4783 20 18.8733 20 18.2117V7.5C20 5.2025 18.1308 3.33333 15.8333 3.33333ZM1.85833 14.9825C1.8425 14.9925 1.79583 15.0225 1.73167 14.9883C1.66583 14.9533 1.66583 14.8975 1.66583 14.8792V4.16667C1.66583 2.78833 2.7875 1.66667 4.16583 1.66667H10.8325C12.2108 1.66667 13.3325 2.78833 13.3325 4.16667V10C13.3325 11.3783 12.2108 12.5 10.8325 12.5H5.8325C5.56 12.5 5.38167 12.6325 5.36167 12.6458L1.85833 14.9825ZM18.3333 18.2125C18.3333 18.23 18.3333 18.2867 18.2675 18.3217C18.2017 18.3558 18.1567 18.3258 18.1417 18.3158L14.6292 15.9733C14.4925 15.8825 14.3317 15.8333 14.1667 15.8333H9.16667C8.08 15.8333 7.15417 15.1367 6.81 14.1667H10.8333C13.1308 14.1667 15 12.2975 15 10V5H15.8333C17.2117 5 18.3333 6.12167 18.3333 7.5V18.2125Z" fill="#00A3C4"/>
</svg>
