<svg width="20" height="20" viewBox="0 0 20 20" fill="none" xmlns="http://www.w3.org/2000/svg">
<g clip-path="url(#clip0_456_10195)">
<path d="M9.16652 0.833321C9.16652 0.612308 9.07872 0.400346 8.92244 0.244066C8.76616 0.0877854 8.5542 -1.19669e-05 8.33318 -1.19669e-05C6.12379 0.00241436 4.00558 0.881167 2.44331 2.44344C0.881029 4.00572 0.00227547 6.12393 -0.000150681 8.33332C-0.000150681 8.55434 0.0876465 8.7663 0.243927 8.92258C0.400206 9.07886 0.612169 9.16666 0.833183 9.16666C1.0542 9.16666 1.26616 9.07886 1.42244 8.92258C1.57872 8.7663 1.66652 8.55434 1.66652 8.33332C1.6685 6.56582 2.37152 4.87128 3.62133 3.62147C4.87114 2.37166 6.56568 1.66864 8.33318 1.66665C8.5542 1.66665 8.76616 1.57886 8.92244 1.42258C9.07872 1.2663 9.16652 1.05434 9.16652 0.833321ZM8.33318 4.99999C7.44913 4.99999 6.60128 5.35118 5.97616 5.9763C5.35104 6.60142 4.99985 7.44927 4.99985 8.33332C4.99985 8.55434 4.91205 8.7663 4.75577 8.92258C4.59949 9.07886 4.38753 9.16666 4.16652 9.16666C3.9455 9.16666 3.73354 9.07886 3.57726 8.92258C3.42098 8.7663 3.33318 8.55434 3.33318 8.33332C3.33451 7.00765 3.86172 5.73665 4.79911 4.79925C5.73651 3.86185 7.00751 3.33465 8.33318 3.33332C8.5542 3.33332 8.76616 3.42112 8.92244 3.5774C9.07872 3.73368 9.16652 3.94564 9.16652 4.16666C9.16652 4.38767 9.07872 4.59963 8.92244 4.75591C8.76616 4.91219 8.5542 4.99999 8.33318 4.99999ZM0.755682 13.9492C0.272757 14.4334 0.00156403 15.0894 0.00156403 15.7733C0.00156403 16.4572 0.272757 17.1132 0.755682 17.5975L1.51402 18.4717C8.33902 25.0058 24.9473 8.40166 18.514 1.55499L17.5557 0.721655C17.0709 0.252219 16.4207 -0.00747107 15.7459 -0.00123293C15.0711 0.0050052 14.4259 0.27667 13.9498 0.754988C13.924 0.780822 12.3798 2.78666 12.3798 2.78666C11.9217 3.26801 11.6666 3.90743 11.6677 4.57199C11.6688 5.23655 11.9259 5.87513 12.3857 6.35499L13.3507 7.56832C12.8166 8.86592 12.0315 10.0452 11.0403 11.0384C10.0491 12.0316 8.87136 12.8192 7.57485 13.3558L6.35402 12.385C5.87409 11.9256 5.23563 11.6687 4.57127 11.6678C3.90691 11.6669 3.26772 11.9219 2.78652 12.38C2.78652 12.38 0.781515 13.9233 0.755682 13.9492ZM1.90235 15.1608C1.90235 15.1608 3.89652 13.6267 3.92235 13.6008C4.09403 13.4306 4.326 13.3351 4.56777 13.3351C4.80953 13.3351 5.0415 13.4306 5.21318 13.6008C5.23568 13.6242 6.91652 14.9633 6.91652 14.9633C7.02978 15.0535 7.16459 15.1126 7.30764 15.1348C7.4507 15.157 7.59708 15.1416 7.73235 15.09C9.41197 14.4646 10.9376 13.4856 12.2058 12.2192C13.4741 10.9528 14.4553 9.42868 15.0832 7.74999C15.1389 7.61287 15.157 7.4634 15.1358 7.31694C15.1145 7.17048 15.0547 7.03232 14.9623 6.91666C14.9623 6.91666 13.6232 5.23499 13.6007 5.21332C13.4305 5.04164 13.3349 4.80967 13.3349 4.56791C13.3349 4.32614 13.4305 4.09417 13.6007 3.92249C13.6265 3.89749 15.1607 1.90165 15.1607 1.90165C15.3349 1.74541 15.5623 1.66173 15.7963 1.66778C16.0303 1.67382 16.2531 1.76912 16.419 1.93415L17.3773 2.76749C22.079 8.42082 7.68652 22.015 2.73235 17.3333L1.97318 16.4583C1.79528 16.2935 1.68843 16.066 1.67521 15.8239C1.66199 15.5818 1.74344 15.344 1.90235 15.1608Z" fill="#00A3C4"/>
</g>
<defs>
<clipPath id="clip0_456_10195">
<rect width="20" height="20" fill="white" transform="matrix(-1 0 0 1 20 0)"/>
</clipPath>
</defs>
</svg>
