<?xml version="1.0" encoding="utf-8"?>
<!-- Generator: Adobe Illustrator 26.3.1, SVG Export Plug-In . SVG Version: 6.00 Build 0)  -->
<svg version="1.1" id="Layer_1" xmlns="http://www.w3.org/2000/svg" xmlns:xlink="http://www.w3.org/1999/xlink" x="0px" y="0px"
	 viewBox="0 0 24 24" style="enable-background:new 0 0 24 24;" xml:space="preserve">
<style type="text/css">
	.st0{fill:#FFFFFF;}
</style>
<path class="st0" d="M5,0.2H3C1.5,0.2,0.2,1.5,0.2,3v2c0,1.5,1.3,2.8,2.8,2.8h2c1.5,0,2.8-1.3,2.8-2.8V3C7.8,1.5,6.5,0.2,5,0.2z
	 M6.2,5c0,0.7-0.5,1.2-1.2,1.2H3C2.3,6.2,1.8,5.7,1.8,5V3c0-0.7,0.5-1.2,1.2-1.2h2c0.7,0,1.2,0.5,1.2,1.2V5z M5,10.2H3
	c-1.5,0-2.8,1.3-2.8,2.8v2c0,1.5,1.3,2.8,2.8,2.8h2c1.5,0,2.8-1.3,2.8-2.8v-2C7.8,11.5,6.5,10.2,5,10.2z M6.2,15
	c0,0.7-0.5,1.2-1.2,1.2H3c-0.7,0-1.2-0.5-1.2-1.2v-2c0-0.7,0.5-1.2,1.2-1.2h2c0.7,0,1.2,0.5,1.2,1.2C6.2,13,6.2,15,6.2,15z
	 M14.5,3.2h-1c-0.2,0-0.3,0.1-0.3,0.3v1c0,0.2,0.1,0.3,0.3,0.3h1c0.2,0,0.3-0.1,0.3-0.3v-1C14.8,3.3,14.7,3.2,14.5,3.2z M14.5,3.2
	h-1c-0.2,0-0.3,0.1-0.3,0.3v1c0,0.2,0.1,0.3,0.3,0.3h1c0.2,0,0.3-0.1,0.3-0.3v-1C14.8,3.3,14.7,3.2,14.5,3.2z M14.5,3.2h-1
	c-0.2,0-0.3,0.1-0.3,0.3v1c0,0.2,0.1,0.3,0.3,0.3h1c0.2,0,0.3-0.1,0.3-0.3v-1C14.8,3.3,14.7,3.2,14.5,3.2z M14.5,3.2h-1
	c-0.2,0-0.3,0.1-0.3,0.3v1c0,0.2,0.1,0.3,0.3,0.3h1c0.2,0,0.3-0.1,0.3-0.3v-1C14.8,3.3,14.7,3.2,14.5,3.2z M14.5,3.2h-1
	c-0.2,0-0.3,0.1-0.3,0.3v1c0,0.2,0.1,0.3,0.3,0.3h1c0.2,0,0.3-0.1,0.3-0.3v-1C14.8,3.3,14.7,3.2,14.5,3.2z M14.5,3.2h-1
	c-0.2,0-0.3,0.1-0.3,0.3v1c0,0.2,0.1,0.3,0.3,0.3h1c0.2,0,0.3-0.1,0.3-0.3v-1C14.8,3.3,14.7,3.2,14.5,3.2z M14.5,3.2h-1
	c-0.2,0-0.3,0.1-0.3,0.3v1c0,0.2,0.1,0.3,0.3,0.3h1c0.2,0,0.3-0.1,0.3-0.3v-1C14.8,3.3,14.7,3.2,14.5,3.2z M14.5,3.2h-1
	c-0.2,0-0.3,0.1-0.3,0.3v1c0,0.2,0.1,0.3,0.3,0.3h1c0.2,0,0.3-0.1,0.3-0.3v-1C14.8,3.3,14.7,3.2,14.5,3.2z M14.5,3.2h-1
	c-0.2,0-0.3,0.1-0.3,0.3v1c0,0.2,0.1,0.3,0.3,0.3h1c0.2,0,0.3-0.1,0.3-0.3v-1C14.8,3.3,14.7,3.2,14.5,3.2z M14.5,3.2h-1
	c-0.2,0-0.3,0.1-0.3,0.3v1c0,0.2,0.1,0.3,0.3,0.3h1c0.2,0,0.3-0.1,0.3-0.3v-1C14.8,3.3,14.7,3.2,14.5,3.2z M14.5,3.2h-1
	c-0.2,0-0.3,0.1-0.3,0.3v1c0,0.2,0.1,0.3,0.3,0.3h1c0.2,0,0.3-0.1,0.3-0.3v-1C14.8,3.3,14.7,3.2,14.5,3.2z M14.5,3.2h-1
	c-0.2,0-0.3,0.1-0.3,0.3v1c0,0.2,0.1,0.3,0.3,0.3h1c0.2,0,0.3-0.1,0.3-0.3v-1C14.8,3.3,14.7,3.2,14.5,3.2z M14.5,3.2h-1
	c-0.2,0-0.3,0.1-0.3,0.3v1c0,0.2,0.1,0.3,0.3,0.3h1c0.2,0,0.3-0.1,0.3-0.3v-1C14.8,3.3,14.7,3.2,14.5,3.2z M14.5,3.2h-1
	c-0.2,0-0.3,0.1-0.3,0.3v1c0,0.2,0.1,0.3,0.3,0.3h1c0.2,0,0.3-0.1,0.3-0.3v-1C14.8,3.3,14.7,3.2,14.5,3.2z M14.5,3.2h-1
	c-0.2,0-0.3,0.1-0.3,0.3v1c0,0.2,0.1,0.3,0.3,0.3h1c0.2,0,0.3-0.1,0.3-0.3v-1C14.8,3.3,14.7,3.2,14.5,3.2z M14.5,3.2h-1
	c-0.2,0-0.3,0.1-0.3,0.3v1c0,0.2,0.1,0.3,0.3,0.3h1c0.2,0,0.3-0.1,0.3-0.3v-1C14.8,3.3,14.7,3.2,14.5,3.2z M15,0.2h-2
	c-1.5,0-2.8,1.3-2.8,2.8v2c0,1.5,1.3,2.8,2.8,2.8h2c1.5,0,2.8-1.3,2.8-2.8V3C17.8,1.5,16.5,0.2,15,0.2z M16.2,5
	c0,0.7-0.5,1.2-1.2,1.2h-2c-0.7,0-1.2-0.5-1.2-1.2V3c0-0.7,0.5-1.2,1.2-1.2h2c0.7,0,1.2,0.5,1.2,1.2V5z M14.5,3.2h-1
	c-0.2,0-0.3,0.1-0.3,0.3v1c0,0.2,0.1,0.3,0.3,0.3h1c0.2,0,0.3-0.1,0.3-0.3v-1C14.8,3.3,14.7,3.2,14.5,3.2z M14.5,3.2h-1
	c-0.2,0-0.3,0.1-0.3,0.3v1c0,0.2,0.1,0.3,0.3,0.3h1c0.2,0,0.3-0.1,0.3-0.3v-1C14.8,3.3,14.7,3.2,14.5,3.2z M14.5,3.2h-1
	c-0.2,0-0.3,0.1-0.3,0.3v1c0,0.2,0.1,0.3,0.3,0.3h1c0.2,0,0.3-0.1,0.3-0.3v-1C14.8,3.3,14.7,3.2,14.5,3.2z M14.5,3.2h-1
	c-0.2,0-0.3,0.1-0.3,0.3v1c0,0.2,0.1,0.3,0.3,0.3h1c0.2,0,0.3-0.1,0.3-0.3v-1C14.8,3.3,14.7,3.2,14.5,3.2z M14.5,3.2h-1
	c-0.2,0-0.3,0.1-0.3,0.3v1c0,0.2,0.1,0.3,0.3,0.3h1c0.2,0,0.3-0.1,0.3-0.3v-1C14.8,3.3,14.7,3.2,14.5,3.2z M14.5,3.2h-1
	c-0.2,0-0.3,0.1-0.3,0.3v1c0,0.2,0.1,0.3,0.3,0.3h1c0.2,0,0.3-0.1,0.3-0.3v-1C14.8,3.3,14.7,3.2,14.5,3.2z M14.5,3.2h-1
	c-0.2,0-0.3,0.1-0.3,0.3v1c0,0.2,0.1,0.3,0.3,0.3h1c0.2,0,0.3-0.1,0.3-0.3v-1C14.8,3.3,14.7,3.2,14.5,3.2z M14.5,3.2h-1
	c-0.2,0-0.3,0.1-0.3,0.3v1c0,0.2,0.1,0.3,0.3,0.3h1c0.2,0,0.3-0.1,0.3-0.3v-1C14.8,3.3,14.7,3.2,14.5,3.2z M14.5,3.2h-1
	c-0.2,0-0.3,0.1-0.3,0.3v1c0,0.2,0.1,0.3,0.3,0.3h1c0.2,0,0.3-0.1,0.3-0.3v-1C14.8,3.3,14.7,3.2,14.5,3.2z M14.5,3.2h-1
	c-0.2,0-0.3,0.1-0.3,0.3v1c0,0.2,0.1,0.3,0.3,0.3h1c0.2,0,0.3-0.1,0.3-0.3v-1C14.8,3.3,14.7,3.2,14.5,3.2z M14.5,3.2h-1
	c-0.2,0-0.3,0.1-0.3,0.3v1c0,0.2,0.1,0.3,0.3,0.3h1c0.2,0,0.3-0.1,0.3-0.3v-1C14.8,3.3,14.7,3.2,14.5,3.2z M14.5,3.2h-1
	c-0.2,0-0.3,0.1-0.3,0.3v1c0,0.2,0.1,0.3,0.3,0.3h1c0.2,0,0.3-0.1,0.3-0.3v-1C14.8,3.3,14.7,3.2,14.5,3.2z M14.5,3.2h-1
	c-0.2,0-0.3,0.1-0.3,0.3v1c0,0.2,0.1,0.3,0.3,0.3h1c0.2,0,0.3-0.1,0.3-0.3v-1C14.8,3.3,14.7,3.2,14.5,3.2z M14.5,3.2h-1
	c-0.2,0-0.3,0.1-0.3,0.3v1c0,0.2,0.1,0.3,0.3,0.3h1c0.2,0,0.3-0.1,0.3-0.3v-1C14.8,3.3,14.7,3.2,14.5,3.2z M14.5,3.2h-1
	c-0.2,0-0.3,0.1-0.3,0.3v1c0,0.2,0.1,0.3,0.3,0.3h1c0.2,0,0.3-0.1,0.3-0.3v-1C14.8,3.3,14.7,3.2,14.5,3.2z M14.5,3.2h-1
	c-0.2,0-0.3,0.1-0.3,0.3v1c0,0.2,0.1,0.3,0.3,0.3h1c0.2,0,0.3-0.1,0.3-0.3v-1C14.8,3.3,14.7,3.2,14.5,3.2z M14.5,3.2h-1
	c-0.2,0-0.3,0.1-0.3,0.3v1c0,0.2,0.1,0.3,0.3,0.3h1c0.2,0,0.3-0.1,0.3-0.3v-1C14.8,3.3,14.7,3.2,14.5,3.2z M20.7,18.7l-3.9-1.3v-5.3
	c0-1.4-1-2.7-2.3-2.9c-0.8-0.1-1.6,0.1-2.3,0.6c-0.6,0.5-1,1.3-1,2.1v8l-0.3-0.3c0,0-1-0.8-1-0.8c-1.1-1-2.9-0.9-3.9,0.2
	c-1.1,1.1-1,2.9,0.1,4l0.6,0.5c0.2,0.1,0.3,0.2,0.6,0.2c0.4,0,0.6-0.3,0.7-0.5C8,23.1,8,22.7,7.7,22.4l-0.6-0.5
	c-0.5-0.5-0.5-1.2-0.1-1.7s1.2-0.5,1.7-0.1c0.1,0,1.8,1.4,1.8,1.4c0.4,0.3,1,0.4,1.4,0.2s0.8-0.7,0.8-1.2V12c0-0.4,0.1-0.7,0.4-0.9
	c0.2-0.2,0.5-0.3,0.8-0.3c0.1,0,0.1,0,0.2,0c0.6,0.1,1,0.6,1,1.3V18c0,0.3,0.2,0.6,0.6,0.8l4.4,1.5c1.2,0.4,2,1.5,2.1,2.8
	c0,0.4,0.4,0.8,0.8,0.8c0.5,0,0.8-0.4,0.8-0.8v0C23.7,21.1,22.4,19.4,20.7,18.7z"/>
</svg>
