<svg width="60" height="60" viewBox="0 0 60 60" fill="none" xmlns="http://www.w3.org/2000/svg">
<rect width="60" height="60" rx="12" fill="#42526B"/>
<g clip-path="url(#clip0_268_26479)">
<path d="M25.8232 27.3183L25.8155 27.326V27.0845C25.8155 24.4574 28.2515 22.3873 30.9826 23.0146L30.9826 23.0146C32.4838 23.3603 33.7051 24.5732 34.0616 26.072C34.1821 26.5766 34.2097 27.0723 34.1571 27.5447C34.0869 28.1793 34.5344 28.7345 35.1578 28.7345H35.2103C35.7483 28.7345 36.2127 28.3403 36.2742 27.8127C36.3523 27.1375 36.3236 26.4309 36.1695 25.7089M25.8232 27.3183L36.2673 25.688M25.8232 27.3183C25.8538 27.8684 25.9912 28.3908 26.2152 28.8644C25.6978 29.5456 25.3611 30.3713 25.2737 31.2705M25.8232 27.3183L25.2737 31.2705M36.1695 25.7089L36.2673 25.688M36.1695 25.7089C36.1695 25.7089 36.1695 25.7089 36.1695 25.7089L36.2673 25.688M36.1695 25.7089C35.6598 23.3221 33.7221 21.396 31.332 20.9046M36.2673 25.688C35.7493 23.2625 33.7812 21.306 31.3522 20.8067L31.3321 20.9046C31.3321 20.9046 31.3321 20.9046 31.332 20.9046M31.332 20.9046C27.2688 20.0706 23.6833 23.167 23.6833 27.0845C23.6833 28.688 24.2848 30.1544 25.2737 31.2705M31.332 20.9046L25.2737 31.2705M21.2798 25.5556L21.2783 25.564V25.5651C21.1915 26.0526 20.7474 26.4012 20.2443 26.4012C19.5849 26.4012 19.0731 25.8046 19.1889 25.1585C19.604 22.8449 20.7568 20.6944 22.4897 19.0701L22.4898 19.0701C24.727 16.9705 27.648 15.9243 30.7285 16.1243L30.7286 16.1243C36.5304 16.4987 41.0678 21.5498 40.9822 27.5906C40.9363 30.8218 38.2422 33.3988 35.0062 33.3988H31.5855H31.5452L31.5161 33.4268C31.1149 33.8135 30.5713 34.0533 29.9708 34.0533C28.7369 34.0533 27.7375 33.054 27.7375 31.82C27.7375 30.5861 28.7369 29.5867 29.9708 29.5867C30.9837 29.5867 31.8305 30.2671 32.1032 31.1938L32.1244 31.2655H32.1992H35.0062C37.0828 31.2655 38.826 29.6113 38.8488 27.529C38.9031 22.6425 35.2595 18.5546 30.591 18.2522L30.5907 18.2522C28.1149 18.0989 25.7521 18.9342 23.9478 20.6252L23.9478 20.6252C22.5227 21.9618 21.6032 23.6755 21.2798 25.5556ZM20.8146 42.5156L20.8146 42.5154C22.0411 38.581 25.7305 35.9336 29.9994 35.9333C34.2683 35.9336 37.9577 38.581 39.1842 42.5154C39.3591 43.0774 39.0457 43.6757 38.4839 43.8519C38.3762 43.8842 38.2705 43.9 38.1655 43.9C37.7098 43.9 37.2897 43.6076 37.1468 43.1511C36.2136 40.1552 33.2727 38.0667 29.9988 38.0667C26.7249 38.0667 23.7852 40.1553 22.8509 43.1512C22.6751 43.7114 22.0771 44.0215 21.5151 43.852C20.953 43.6757 20.6387 43.0773 20.8146 42.5156Z" fill="white" stroke="#42526B" stroke-width="0.2"/>
</g>
<defs>
<clipPath id="clip0_268_26479">
<rect width="28" height="28" fill="white" transform="translate(16 16)"/>
</clipPath>
</defs>
</svg>
