<svg width="60" height="60" viewBox="0 0 60 60" fill="none" xmlns="http://www.w3.org/2000/svg">
<rect width="60" height="60" rx="12" fill="#42526B"/>
<g clip-path="url(#clip0_268_26456)">
<path d="M28.1928 41.2957C28.747 41.739 29.489 41.8218 30.1295 41.5138C30.7688 41.2047 31.1667 40.5723 31.1667 39.863V30C31.1667 29.657 31.3172 29.3315 31.5785 29.1098C31.8433 28.8835 32.1828 28.789 32.5375 28.8497C33.0777 28.9372 33.5 29.4972 33.5 30.1248V37C33.5 37.4993 33.8197 37.945 34.2945 38.1048L28.1928 41.2957ZM28.1928 41.2957L28.2552 41.2175L28.2551 41.2174L28.2548 41.2172L28.2537 41.2163L28.2493 41.2128L28.2321 41.1991L28.1669 41.147L27.934 40.9612L27.2265 40.3966L26.5168 39.8301C26.3229 39.6752 26.1978 39.575 26.1937 39.5718C25.6846 39.1004 24.8849 39.1244 24.4086 39.6337C23.9312 40.144 23.9577 40.9476 24.4663 41.4264C24.4665 41.4265 24.4667 41.4267 24.4668 41.4269L25.1286 42.0653L25.1286 42.0654C25.8198 42.7309 25.3484 43.9 24.3883 43.9C24.1119 43.9 23.8464 43.7933 23.6482 43.6015L23.6481 43.6013L22.9971 42.9737L22.996 42.9727C21.6412 41.7039 21.5682 39.5482 22.849 38.179L22.8491 38.1789C24.0986 36.8399 26.1827 36.7509 27.5544 37.9435L27.5542 37.9437L27.56 37.948C27.5599 37.9479 27.5779 37.9621 27.6128 37.9896L27.7514 38.0989L28.1676 38.4274L28.5821 38.7547L28.7185 38.8623L28.7567 38.8925L28.7667 38.9004L28.7693 38.9025L28.77 38.903L28.7701 38.9031L28.7702 38.9031L28.8322 38.8247L28.7702 38.9032L28.9322 39.031V38.8247V30.0012C28.9322 29.0016 29.3696 28.0576 30.1313 27.4104L30.1313 27.4103C30.8925 26.7624 31.8988 26.4866 32.896 26.6465C34.5089 26.9088 35.7322 28.4039 35.7322 30.126V36.1635V36.2353L35.8002 36.2582L40.1503 37.7265C42.3083 38.5345 43.7637 40.5112 43.8967 42.7715L43.8996 42.8212C43.9059 43.387 43.4673 43.8621 42.8989 43.8977C42.8852 43.8978 42.8725 43.8984 42.8621 43.8989L42.8617 43.899C42.8497 43.8996 42.8409 43.9 42.8322 43.9C42.2723 43.9 41.8019 43.4626 41.7688 42.8963C41.686 41.4743 40.7716 40.2347 39.4396 39.7355L39.4396 39.7355L39.4365 39.7344L34.3265 38.0101L34.3264 38.0101C33.8923 37.8639 33.6 37.4564 33.6 37V30.1248C33.6 29.4589 33.1521 28.8482 32.554 28.751M28.1928 41.2957C28.1928 41.2957 26.1383 39.6565 26.1267 39.646C25.6577 39.2108 24.9203 39.233 24.4817 39.702L32.554 28.751M28.1928 41.2957L28.2552 41.2175L28.2553 41.2176C28.7793 41.6368 29.4801 41.7151 30.0861 41.4237C30.691 41.1312 31.0667 40.5338 31.0667 39.863V30C31.0667 29.6277 31.23 29.2744 31.5137 29.0337C31.8012 28.788 32.1706 28.6856 32.554 28.751M28.1928 41.2957L32.554 28.751M21.8333 25.2333H19.5C17.6256 25.2333 16.1 23.7078 16.1 21.8333V19.5C16.1 17.6256 17.6256 16.1 19.5 16.1H21.8333C23.7078 16.1 25.2333 17.6256 25.2333 19.5V21.8333C25.2333 23.7078 23.7078 25.2333 21.8333 25.2333ZM19.5 18.2333C18.8008 18.2333 18.2333 18.8008 18.2333 19.5V21.8333C18.2333 22.5326 18.8008 23.1 19.5 23.1H21.8333C22.5326 23.1 23.1 22.5326 23.1 21.8333V19.5C23.1 18.8008 22.5326 18.2333 21.8333 18.2333H19.5ZM25.2333 31.1667V33.5C25.2333 35.3744 23.7078 36.9 21.8333 36.9H19.5C17.6256 36.9 16.1 35.3744 16.1 33.5V31.1667C16.1 29.2922 17.6256 27.7667 19.5 27.7667H21.8333C23.7078 27.7667 25.2333 29.2922 25.2333 31.1667ZM21.8333 34.7667C22.5326 34.7667 23.1 34.1992 23.1 33.5V31.1667C23.1 30.4674 22.5326 29.9 21.8333 29.9H19.5C18.8008 29.9 18.2333 30.4674 18.2333 31.1667V33.5C18.2333 34.1992 18.8008 34.7667 19.5 34.7667H21.8333ZM33.5 25.2333H31.1667C29.2922 25.2333 27.7667 23.7078 27.7667 21.8333V19.5C27.7667 17.6256 29.2922 16.1 31.1667 16.1H33.5C35.3744 16.1 36.9 17.6256 36.9 19.5V21.8333C36.9 23.7078 35.3744 25.2333 33.5 25.2333ZM31.1667 18.2333C30.4674 18.2333 29.9 18.8008 29.9 19.5V21.8333C29.9 22.5326 30.4674 23.1 31.1667 23.1H33.5C34.1992 23.1 34.7667 22.5326 34.7667 21.8333V19.5C34.7667 18.8008 34.1992 18.2333 33.5 18.2333H31.1667ZM31.2667 21.25V20.0833C31.2667 19.8166 31.4832 19.6 31.75 19.6H32.9167C33.1834 19.6 33.4 19.8166 33.4 20.0833V21.25C33.4 21.5168 33.1834 21.7333 32.9167 21.7333H31.75C31.4832 21.7333 31.2667 21.5168 31.2667 21.25Z" fill="white" stroke="#42526B" stroke-width="0.2"/>
</g>
<defs>
<clipPath id="clip0_268_26456">
<rect width="28" height="28" fill="white" transform="translate(16 16)"/>
</clipPath>
</defs>
</svg>
