<svg width="60" height="60" viewBox="0 0 60 60" fill="none" xmlns="http://www.w3.org/2000/svg">
<rect width="60" height="60" rx="12" fill="#42526B"/>
<g clip-path="url(#clip0_268_26471)">
<path d="M27.4629 26.2029C28.2139 25.7011 29.0968 25.4333 30 25.4333C31.2111 25.4333 32.3727 25.9144 33.2291 26.7709C34.0855 27.6273 34.5666 28.7888 34.5666 30C34.5666 30.9032 34.2988 31.7861 33.797 32.5371C33.2952 33.2881 32.582 33.8734 31.7476 34.219C30.9131 34.5647 29.9949 34.6551 29.1091 34.4789C28.2232 34.3027 27.4095 33.8678 26.7709 33.2291C26.1322 32.5904 25.6973 31.7767 25.5211 30.8909C25.3449 30.005 25.4353 29.0868 25.7809 28.2524C26.1266 27.4179 26.7119 26.7047 27.4629 26.2029ZM28.6481 32.0232C29.0483 32.2906 29.5187 32.4333 30 32.4333C30.6453 32.4333 31.2643 32.1769 31.7206 31.7206C32.1769 31.2643 32.4333 30.6453 32.4333 30C32.4333 29.5187 32.2906 29.0483 32.0232 28.6481C31.7558 28.2479 31.3758 27.936 30.9312 27.7519C30.4865 27.5677 29.9973 27.5195 29.5253 27.6134C29.0532 27.7073 28.6197 27.939 28.2794 28.2794C27.939 28.6197 27.7073 29.0532 27.6134 29.5253C27.5195 29.9973 27.5677 30.4865 27.7519 30.9312C27.936 31.3758 28.2479 31.7558 28.6481 32.0232Z" fill="white" stroke="#42526B" stroke-width="0.2"/>
<mask id="path-3-inside-1_268_26471" fill="white">
<path d="M40.843 32.2167L40.325 31.918C40.5582 30.6492 40.5582 29.3485 40.325 28.0797L40.843 27.781C41.2413 27.5512 41.5905 27.2452 41.8706 26.8804C42.1507 26.5156 42.3561 26.0993 42.4753 25.6551C42.5945 25.2109 42.625 24.7477 42.5651 24.2917C42.5052 23.8357 42.3561 23.396 42.1263 22.9977C41.8965 22.5993 41.5905 22.2501 41.2257 21.9701C40.861 21.69 40.4446 21.4845 40.0004 21.3653C39.5563 21.2462 39.093 21.2157 38.637 21.2755C38.181 21.3354 37.7413 21.4845 37.343 21.7143L36.8238 22.0142C35.8433 21.1764 34.7164 20.527 33.5 20.0985V19.5C33.5 18.5717 33.1312 17.6815 32.4749 17.0251C31.8185 16.3687 30.9282 16 30 16C29.0717 16 28.1815 16.3687 27.5251 17.0251C26.8687 17.6815 26.5 18.5717 26.5 19.5V20.0985C25.2836 20.5285 24.1571 21.1795 23.1773 22.0188L22.6558 21.7167C21.8513 21.2525 20.8954 21.127 19.9984 21.3677C19.1013 21.6083 18.3366 22.1955 17.8725 23C17.4084 23.8045 17.2828 24.7604 17.5235 25.6575C17.7642 26.5545 18.3513 27.3192 19.1558 27.7833L19.6738 28.082C19.4406 29.3508 19.4406 30.6515 19.6738 31.9203L19.1558 32.219C18.3513 32.6831 17.7642 33.4478 17.5235 34.3449C17.2828 35.2419 17.4084 36.1978 17.8725 37.0023C18.3366 37.8068 19.1013 38.394 19.9984 38.6347C20.8954 38.8753 21.8513 38.7498 22.6558 38.2857L23.175 37.9858C24.1559 38.8237 25.2831 39.4732 26.5 39.9015V40.5C26.5 41.4283 26.8687 42.3185 27.5251 42.9749C28.1815 43.6313 29.0717 44 30 44C30.9282 44 31.8185 43.6313 32.4749 42.9749C33.1312 42.3185 33.5 41.4283 33.5 40.5V39.9015C34.7164 39.4715 35.8428 38.8205 36.8227 37.9812L37.3442 38.2822C38.1486 38.7463 39.1046 38.8718 40.0016 38.6312C40.8987 38.3905 41.6634 37.8033 42.1275 36.9988C42.5916 36.1943 42.7172 35.2384 42.4765 34.3414C42.2358 33.4443 41.6486 32.6796 40.8442 32.2155L40.843 32.2167ZM37.8703 27.8113C38.2654 29.2429 38.2654 30.7548 37.8703 32.1863C37.8013 32.4355 37.8171 32.7005 37.9151 32.9398C38.013 33.179 38.1877 33.379 38.4117 33.5082L39.6763 34.2385C39.9444 34.3932 40.1401 34.6481 40.2203 34.9471C40.3005 35.246 40.2586 35.5646 40.1039 35.8328C39.9492 36.1009 39.6943 36.2965 39.3953 36.3767C39.0964 36.4569 38.7778 36.415 38.5097 36.2603L37.2427 35.5277C37.0185 35.3979 36.7576 35.3463 36.5009 35.3812C36.2443 35.416 36.0065 35.5353 35.8252 35.7202C34.7867 36.7803 33.4785 37.5366 32.0417 37.9077C31.7909 37.9721 31.5686 38.1182 31.41 38.3229C31.2514 38.5276 31.1654 38.7792 31.1655 39.0382V40.5C31.1655 40.8094 31.0426 41.1062 30.8238 41.325C30.605 41.5438 30.3082 41.6667 29.9988 41.6667C29.6894 41.6667 29.3927 41.5438 29.1739 41.325C28.9551 41.1062 28.8322 40.8094 28.8322 40.5V39.0393C28.8323 38.7804 28.7463 38.5287 28.5876 38.3241C28.429 38.1194 28.2068 37.9733 27.956 37.9088C26.5191 37.5363 25.2112 36.7783 24.1737 35.7167C23.9923 35.5318 23.7545 35.4125 23.4979 35.3777C23.2412 35.3428 22.9803 35.3944 22.7562 35.5242L21.4915 36.2557C21.3588 36.3335 21.2119 36.3843 21.0595 36.4051C20.9071 36.426 20.752 36.4164 20.6033 36.3771C20.4545 36.3378 20.315 36.2694 20.1928 36.176C20.0706 36.0825 19.968 35.9658 19.8911 35.8326C19.8142 35.6993 19.7644 35.5522 19.7445 35.3996C19.7247 35.247 19.7352 35.092 19.7755 34.9435C19.8159 34.795 19.8851 34.656 19.9794 34.5344C20.0737 34.4128 20.1911 34.311 20.3248 34.235L21.5895 33.5047C21.8134 33.3755 21.9881 33.1755 22.0861 32.9363C22.1841 32.697 22.1998 32.432 22.1308 32.1828C21.7357 30.7513 21.7357 29.2394 22.1308 27.8078C22.1986 27.5592 22.1821 27.2951 22.0839 27.0568C21.9858 26.8186 21.8115 26.6195 21.5883 26.4907L20.3237 25.7603C20.0555 25.6056 19.8599 25.3507 19.7797 25.0518C19.6995 24.7528 19.7414 24.4342 19.8961 24.1661C20.0508 23.898 20.3057 23.7023 20.6046 23.6221C20.9036 23.5419 21.2222 23.5838 21.4903 23.7385L22.7573 24.4712C22.9808 24.6013 23.2412 24.6534 23.4976 24.6194C23.754 24.5854 23.9918 24.4672 24.1737 24.2833C25.2121 23.2232 26.5203 22.4669 27.9572 22.0958C28.2087 22.0312 28.4315 21.8844 28.5902 21.6788C28.7489 21.4731 28.8345 21.2204 28.8333 20.9607V19.5C28.8333 19.1906 28.9562 18.8938 29.175 18.675C29.3938 18.4562 29.6906 18.3333 30 18.3333C30.3094 18.3333 30.6062 18.4562 30.8249 18.675C31.0437 18.8938 31.1667 19.1906 31.1667 19.5V20.9607C31.1665 21.2196 31.2526 21.4713 31.4112 21.6759C31.5698 21.8806 31.792 22.0267 32.0428 22.0912C33.4802 22.4635 34.7884 23.2215 35.8263 24.2833C36.0077 24.4682 36.2455 24.5875 36.5021 24.6223C36.7588 24.6572 37.0197 24.6056 37.2438 24.4758L38.5085 23.7443C38.6412 23.6665 38.788 23.6157 38.9405 23.5949C39.0929 23.574 39.248 23.5836 39.3967 23.6229C39.5455 23.6622 39.685 23.7306 39.8072 23.824C39.9294 23.9175 40.0319 24.0342 40.1089 24.1675C40.1858 24.3007 40.2356 24.4478 40.2555 24.6004C40.2753 24.753 40.2647 24.908 40.2244 25.0565C40.1841 25.205 40.1148 25.344 40.0206 25.4656C39.9263 25.5872 39.8089 25.689 39.6752 25.765L38.4105 26.4953C38.1877 26.6245 38.0139 26.8237 37.9162 27.062C37.8185 27.3002 37.8024 27.5641 37.8703 27.8125V27.8113Z"/>
</mask>
<path d="M40.843 32.2167L40.325 31.918C40.5582 30.6492 40.5582 29.3485 40.325 28.0797L40.843 27.781C41.2413 27.5512 41.5905 27.2452 41.8706 26.8804C42.1507 26.5156 42.3561 26.0993 42.4753 25.6551C42.5945 25.2109 42.625 24.7477 42.5651 24.2917C42.5052 23.8357 42.3561 23.396 42.1263 22.9977C41.8965 22.5993 41.5905 22.2501 41.2257 21.9701C40.861 21.69 40.4446 21.4845 40.0004 21.3653C39.5563 21.2462 39.093 21.2157 38.637 21.2755C38.181 21.3354 37.7413 21.4845 37.343 21.7143L36.8238 22.0142C35.8433 21.1764 34.7164 20.527 33.5 20.0985V19.5C33.5 18.5717 33.1312 17.6815 32.4749 17.0251C31.8185 16.3687 30.9282 16 30 16C29.0717 16 28.1815 16.3687 27.5251 17.0251C26.8687 17.6815 26.5 18.5717 26.5 19.5V20.0985C25.2836 20.5285 24.1571 21.1795 23.1773 22.0188L22.6558 21.7167C21.8513 21.2525 20.8954 21.127 19.9984 21.3677C19.1013 21.6083 18.3366 22.1955 17.8725 23C17.4084 23.8045 17.2828 24.7604 17.5235 25.6575C17.7642 26.5545 18.3513 27.3192 19.1558 27.7833L19.6738 28.082C19.4406 29.3508 19.4406 30.6515 19.6738 31.9203L19.1558 32.219C18.3513 32.6831 17.7642 33.4478 17.5235 34.3449C17.2828 35.2419 17.4084 36.1978 17.8725 37.0023C18.3366 37.8068 19.1013 38.394 19.9984 38.6347C20.8954 38.8753 21.8513 38.7498 22.6558 38.2857L23.175 37.9858C24.1559 38.8237 25.2831 39.4732 26.5 39.9015V40.5C26.5 41.4283 26.8687 42.3185 27.5251 42.9749C28.1815 43.6313 29.0717 44 30 44C30.9282 44 31.8185 43.6313 32.4749 42.9749C33.1312 42.3185 33.5 41.4283 33.5 40.5V39.9015C34.7164 39.4715 35.8428 38.8205 36.8227 37.9812L37.3442 38.2822C38.1486 38.7463 39.1046 38.8718 40.0016 38.6312C40.8987 38.3905 41.6634 37.8033 42.1275 36.9988C42.5916 36.1943 42.7172 35.2384 42.4765 34.3414C42.2358 33.4443 41.6486 32.6796 40.8442 32.2155L40.843 32.2167ZM37.8703 27.8113C38.2654 29.2429 38.2654 30.7548 37.8703 32.1863C37.8013 32.4355 37.8171 32.7005 37.9151 32.9398C38.013 33.179 38.1877 33.379 38.4117 33.5082L39.6763 34.2385C39.9444 34.3932 40.1401 34.6481 40.2203 34.9471C40.3005 35.246 40.2586 35.5646 40.1039 35.8328C39.9492 36.1009 39.6943 36.2965 39.3953 36.3767C39.0964 36.4569 38.7778 36.415 38.5097 36.2603L37.2427 35.5277C37.0185 35.3979 36.7576 35.3463 36.5009 35.3812C36.2443 35.416 36.0065 35.5353 35.8252 35.7202C34.7867 36.7803 33.4785 37.5366 32.0417 37.9077C31.7909 37.9721 31.5686 38.1182 31.41 38.3229C31.2514 38.5276 31.1654 38.7792 31.1655 39.0382V40.5C31.1655 40.8094 31.0426 41.1062 30.8238 41.325C30.605 41.5438 30.3082 41.6667 29.9988 41.6667C29.6894 41.6667 29.3927 41.5438 29.1739 41.325C28.9551 41.1062 28.8322 40.8094 28.8322 40.5V39.0393C28.8323 38.7804 28.7463 38.5287 28.5876 38.3241C28.429 38.1194 28.2068 37.9733 27.956 37.9088C26.5191 37.5363 25.2112 36.7783 24.1737 35.7167C23.9923 35.5318 23.7545 35.4125 23.4979 35.3777C23.2412 35.3428 22.9803 35.3944 22.7562 35.5242L21.4915 36.2557C21.3588 36.3335 21.2119 36.3843 21.0595 36.4051C20.9071 36.426 20.752 36.4164 20.6033 36.3771C20.4545 36.3378 20.315 36.2694 20.1928 36.176C20.0706 36.0825 19.968 35.9658 19.8911 35.8326C19.8142 35.6993 19.7644 35.5522 19.7445 35.3996C19.7247 35.247 19.7352 35.092 19.7755 34.9435C19.8159 34.795 19.8851 34.656 19.9794 34.5344C20.0737 34.4128 20.1911 34.311 20.3248 34.235L21.5895 33.5047C21.8134 33.3755 21.9881 33.1755 22.0861 32.9363C22.1841 32.697 22.1998 32.432 22.1308 32.1828C21.7357 30.7513 21.7357 29.2394 22.1308 27.8078C22.1986 27.5592 22.1821 27.2951 22.0839 27.0568C21.9858 26.8186 21.8115 26.6195 21.5883 26.4907L20.3237 25.7603C20.0555 25.6056 19.8599 25.3507 19.7797 25.0518C19.6995 24.7528 19.7414 24.4342 19.8961 24.1661C20.0508 23.898 20.3057 23.7023 20.6046 23.6221C20.9036 23.5419 21.2222 23.5838 21.4903 23.7385L22.7573 24.4712C22.9808 24.6013 23.2412 24.6534 23.4976 24.6194C23.754 24.5854 23.9918 24.4672 24.1737 24.2833C25.2121 23.2232 26.5203 22.4669 27.9572 22.0958C28.2087 22.0312 28.4315 21.8844 28.5902 21.6788C28.7489 21.4731 28.8345 21.2204 28.8333 20.9607V19.5C28.8333 19.1906 28.9562 18.8938 29.175 18.675C29.3938 18.4562 29.6906 18.3333 30 18.3333C30.3094 18.3333 30.6062 18.4562 30.8249 18.675C31.0437 18.8938 31.1667 19.1906 31.1667 19.5V20.9607C31.1665 21.2196 31.2526 21.4713 31.4112 21.6759C31.5698 21.8806 31.792 22.0267 32.0428 22.0912C33.4802 22.4635 34.7884 23.2215 35.8263 24.2833C36.0077 24.4682 36.2455 24.5875 36.5021 24.6223C36.7588 24.6572 37.0197 24.6056 37.2438 24.4758L38.5085 23.7443C38.6412 23.6665 38.788 23.6157 38.9405 23.5949C39.0929 23.574 39.248 23.5836 39.3967 23.6229C39.5455 23.6622 39.685 23.7306 39.8072 23.824C39.9294 23.9175 40.0319 24.0342 40.1089 24.1675C40.1858 24.3007 40.2356 24.4478 40.2555 24.6004C40.2753 24.753 40.2647 24.908 40.2244 25.0565C40.1841 25.205 40.1148 25.344 40.0206 25.4656C39.9263 25.5872 39.8089 25.689 39.6752 25.765L38.4105 26.4953C38.1877 26.6245 38.0139 26.8237 37.9162 27.062C37.8185 27.3002 37.8024 27.5641 37.8703 27.8125V27.8113Z" fill="white" stroke="#42526B" stroke-width="0.4" mask="url(#path-3-inside-1_268_26471)"/>
</g>
<defs>
<clipPath id="clip0_268_26471">
<rect width="28" height="28" fill="white" transform="translate(16 16)"/>
</clipPath>
</defs>
</svg>
