<?xml version="1.0" encoding="utf-8"?>
<!-- Generator: Adobe Illustrator 26.3.1, SVG Export Plug-In . SVG Version: 6.00 Build 0)  -->
<svg version="1.1" id="Outline" xmlns="http://www.w3.org/2000/svg" xmlns:xlink="http://www.w3.org/1999/xlink" x="0px" y="0px"
	 viewBox="0 0 24 24" style="enable-background:new 0 0 24 24;" xml:space="preserve">
<style type="text/css">
	.st0{fill:#FFFFFF;}
</style>
<path class="st0" d="M12,8.2c-2.1,0-3.8,1.7-3.8,3.8s1.7,3.8,3.8,3.8s3.8-1.7,3.8-3.8S14.1,8.2,12,8.2z M12,14.2
	c-1.2,0-2.2-1-2.2-2.2s1-2.2,2.2-2.2s2.2,1,2.2,2.2S13.2,14.2,12,14.2z"/>
<path class="st0" d="M22.5,15.8c-0.2-0.7-0.6-1.3-1.2-1.7l-0.6-0.4l0-0.1c0.2-1.1,0.2-2.1,0-3.2l0-0.1l0.6-0.3
	c0.6-0.4,1.1-1,1.3-1.7c0.2-0.7,0.1-1.5-0.3-2.1s-1-1.1-1.7-1.3c-0.7-0.2-1.5-0.1-2.1,0.3l-0.6,0.3l-0.1-0.1
	c-0.8-0.7-1.8-1.2-2.8-1.6l-0.1,0V3c0-1.5-1.3-2.8-2.8-2.8S9.2,1.5,9.2,3v0.7l-0.1,0c-1,0.4-2,0.9-2.8,1.6L6.2,5.4L5.6,5.1
	c-1.3-0.8-3-0.3-3.8,1C1.4,6.8,1.3,7.5,1.5,8.2C1.7,9,2.2,9.6,2.8,9.9l0.6,0.3l0,0.1c-0.2,1.1-0.2,2.2,0,3.2l0,0.1l-0.6,0.3
	c-0.7,0.4-1.1,1-1.3,1.7c-0.2,0.7-0.1,1.5,0.3,2.1c0.4,0.6,1,1.1,1.7,1.3c0.7,0.2,1.5,0.1,2.1-0.3l0.6-0.3l0.1,0.1
	c0.8,0.7,1.8,1.2,2.8,1.6l0.1,0V21c0,1.5,1.3,2.8,2.8,2.8s2.8-1.3,2.8-2.8v-0.6l0.1,0c1-0.4,2-0.9,2.8-1.6l0.1-0.1l0.6,0.3
	c0.6,0.4,1.4,0.5,2.1,0.3c0.7-0.2,1.3-0.7,1.7-1.3C22.6,17.3,22.7,16.5,22.5,15.8z M20.8,17.1c-0.2,0.3-0.4,0.5-0.7,0.6
	s-0.6,0-0.9-0.1l-1.1-0.6c-0.3-0.2-0.7-0.1-1,0.1c-0.9,0.9-2.1,1.6-3.3,1.9c-0.4,0.1-0.6,0.4-0.6,0.8V21c0,0.7-0.5,1.2-1.2,1.2
	s-1.2-0.5-1.2-1.2v-1.2c0-0.4-0.2-0.7-0.6-0.8c-1.3-0.3-2.4-1-3.3-1.9c-0.2-0.3-0.7-0.3-1-0.1l-1.1,0.6c-0.6,0.3-1.3,0.1-1.6-0.4
	c-0.3-0.6-0.2-1.3,0.4-1.6l1.1-0.6c0.3-0.2,0.5-0.6,0.4-0.9c-0.3-1.3-0.3-2.6,0-3.8C5.2,9.7,5,9.3,4.7,9.2L3.6,8.5
	C3,8.2,2.8,7.5,3.2,6.9s1.1-0.8,1.6-0.4l1.1,0.6c0.3,0.2,0.7,0.1,1-0.1C7.8,6,8.9,5.4,10.2,5c0.4-0.1,0.6-0.4,0.6-0.8V3
	c0-0.7,0.5-1.2,1.2-1.2s1.2,0.5,1.2,1.2v1.2c0,0.4,0.2,0.7,0.6,0.8c1.3,0.3,2.4,1,3.3,1.9c0.2,0.3,0.6,0.3,1,0.1l1.1-0.6
	c0.6-0.3,1.3-0.1,1.6,0.4C21,7.2,21,7.5,21,7.8c-0.1,0.3-0.3,0.6-0.5,0.7l-1.1,0.6c-0.3,0.2-0.5,0.6-0.4,0.9
	c0.2,0.6,0.3,1.3,0.3,1.9s-0.1,1.3-0.3,1.9c-0.1,0.4,0,0.7,0.4,0.9l1.1,0.6C21,15.8,21.2,16.5,20.8,17.1z"/>
</svg>
