<svg width="60" height="60" viewBox="0 0 60 60" fill="none" xmlns="http://www.w3.org/2000/svg">
<rect width="60" height="60" rx="12" fill="#42526B"/>
<g clip-path="url(#clip0_268_26463)">
<path d="M17.1756 42.5051L17.1757 42.5051C17.9574 43.3735 19.0289 43.8689 20.1932 43.9H20.1934H20.1936H20.1938H20.194H20.1942H20.1945H20.1947H20.1949H20.1951H20.1953H20.1956H20.1958H20.196H20.1962H20.1964H20.1966H20.1969H20.1971H20.1973H20.1975H20.1977H20.198H20.1982H20.1984H20.1986H20.1988H20.199H20.1993H20.1995H20.1997H20.1999H20.2001H20.2003H20.2006H20.2008H20.201H20.2012H20.2014H20.2017H20.2019H20.2021H20.2023H20.2025H20.2027H20.203H20.2032H20.2034H20.2036H20.2038H20.204H20.2043H20.2045H20.2047H20.2049H20.2051H20.2054H20.2056H20.2058H20.206H20.2062H20.2064H20.2067H20.2069H20.2071H20.2073H20.2075H20.2077H20.208H20.2082H20.2084H20.2086H20.2088H20.209H20.2093H20.2095H20.2097H20.2099H20.2101H20.2103H20.2106H20.2108H20.211H20.2112H20.2114H20.2116H20.2119H20.2121H20.2123H20.2125H20.2127H20.2129H20.2132H20.2134H20.2136H20.2138H20.214H20.2142H20.2145H20.2147H20.2149H20.2151H20.2153H20.2155H20.2158H20.216H20.2162H20.2164H20.2166H20.2168H20.2171H20.2173H20.2175H20.2177H20.2179H20.2181H20.2184H20.2186H20.2188H20.219H20.2192H20.2194H20.2197H20.2199H20.2201H20.2203H20.2205H20.2207H20.221H20.2212H20.2214H20.2216H20.2218H20.222H20.2222H20.2225H20.2227H20.2229H20.2231H20.2233H20.2235H20.2238H20.224H20.2242H20.2244H20.2246H20.2248H20.2251H20.2253H20.2255H20.2257H20.2259H20.2261H20.2264H20.2266H20.2268H20.227H20.2272H20.2274H20.2276H20.2279H20.2281H20.2283H20.2285H20.2287H20.2289H20.2292H20.2294H20.2296H20.2298H20.23H20.2302H20.2305H20.2307H20.2309H20.2311H20.2313H20.2315H20.2317H20.232H20.2322H20.2324H20.2326H20.2328H20.233H20.2333H20.2335H20.2337H20.2339H20.2341H20.2343H20.2345H20.2348H20.235H20.2352H20.2354H20.2356H20.2358H20.2361H20.2363H20.2365H20.2367H20.2369H20.2371H20.2373H20.2376H20.2378H20.238H20.2382H20.2384H20.2386H20.2389H20.2391H20.2393H20.2395H20.2397H20.2399H20.2401H20.2404H20.2406H20.2408H20.241H20.2412H20.2414H20.2417H20.2419H20.2421H20.2423H20.2425H20.2427H20.2429H20.2432H20.2434H20.2436H20.2438H20.244H20.2442H20.2445H20.2447H20.2449H20.2451H20.2453H20.2455H20.2457H20.246H20.2462H20.2464H20.2466H20.2468H20.247H20.2473H20.2475H20.2477H20.2479H20.2481H20.2483H20.2485H20.2488H20.249H20.2492H20.2494H20.2496H20.2498H20.2501H20.2503H20.2505H20.2507H20.2509H20.2511H20.2513H20.2516H20.2518H20.252H20.2522H20.2524H20.2526H20.2529H20.2531H20.2533H20.2535H20.2537H20.2539H20.2541H20.2544H20.2546H20.2548H20.255H20.2552H20.2554H20.2557H20.2559H20.2561H20.2563H20.2565H20.2567H20.2569H20.2572H20.2574H20.2576H20.2578H20.258H20.2582H20.2585H20.2587H20.2589H20.2591H20.2593H20.2595H20.2597H20.26H20.2602H20.2604H20.2606H20.2608H20.261H20.2613H20.2615H20.2617H20.2619H20.2621H20.2623H20.2625H20.2628H20.263H20.2632H20.2634H20.2636H20.2638H20.2641H20.2643H20.2645H20.2647H20.2649H20.2651H20.2654H20.2656H20.2658H20.266H20.2662H20.2664H20.2666H20.2669H20.2671H20.2673H20.2675H20.2677H20.2679H20.2682H20.2684H20.2686H20.2688H20.269H20.2692H20.2695H20.2697H20.2699H20.2701H20.2703H20.2705H20.2707H20.271H20.2712H20.2714H20.2716H20.2718H20.272H20.2723H20.2725H20.2727H20.2729H20.2731H20.2733H20.2736H20.2738H20.274H20.2742H20.2744H20.2746H20.2749H20.2751H20.2753H20.2755H20.2757H20.2759H20.2762H20.2764H20.2766H20.2768H20.277H20.2772H20.2774H20.2777H20.2779H20.2781H20.2783H20.2785H20.2787H20.279H20.2792H20.2794H20.2796H20.2798H20.28H20.2803H20.2805H20.2807H20.2809H20.2811H20.2813H20.2816H20.2818H20.282H20.2822H20.2824H20.2826H20.2829H20.2831H20.2833H20.2835H20.2837H20.2839H20.2842H20.2844H20.2846H20.2848H20.285H20.2852H20.2855H20.2857H20.2859H20.2861H20.2863H20.2865H20.2868H20.287H20.2872H20.2874H20.2876H20.2879H20.2881H20.2883H20.2885H20.2887H20.2889H20.2892H20.2894H20.2896H20.2898H20.29H20.2902H20.2905H20.2907H20.2909H20.2911H20.2913H20.2915H20.2918H20.292H20.2922H20.2924H20.2926H20.2929H20.2931H20.2933H20.2935H20.2937H20.2939H20.2942H20.2944H20.2946H20.2948H20.295H20.2952H20.2955H20.2957H20.2959H20.2961H20.2963H20.2966H20.2968H20.297H20.2972H20.2974H20.2976H20.2979H20.2981H20.2983H20.2985H20.2987H20.299H20.2992H20.2994H20.2996H20.2998H20.3H20.3003H20.3005H20.3007H20.3009H20.3011H20.3014H20.3016H20.3018H20.302H20.3022H20.3025H20.3027C21.4137 43.9 22.4931 43.4532 23.2793 42.6669L23.35 42.7377L23.2793 42.6669L30.2513 35.6961L30.2514 35.696C30.5754 35.3733 31.0532 35.2593 31.5243 35.3892C33.0428 35.8037 34.6109 35.8443 36.1858 35.508L36.1858 35.508C40.0134 34.6917 43.05 31.5467 43.7429 27.6817C43.9497 26.5205 43.9531 25.3529 43.751 24.2133C43.6048 23.3883 43.012 22.7169 42.2037 22.4631L42.2034 22.463C41.378 22.2012 40.4918 22.4205 39.8894 23.0229L39.889 23.0233L36.8793 25.998C36.8792 25.998 36.8791 25.9981 36.8791 25.9982C36.4679 26.408 35.8993 26.622 35.3216 26.5976L35.3208 26.5975C34.7323 26.5681 34.1997 26.2979 33.8226 25.8352C33.1599 25.0251 33.2904 23.7635 34.0885 22.9654L34.0889 22.965L36.71 20.3789C36.7101 20.3788 36.7102 20.3787 36.7103 20.3786C37.4805 19.6094 37.7607 18.6181 37.4809 17.7275C37.2344 16.9468 36.6021 16.3942 35.7856 16.2501L35.7854 16.2501C34.6459 16.0457 33.4807 16.0503 32.3183 16.2583L32.3183 16.2583C28.4545 16.9488 25.3094 19.9854 24.492 23.813L24.492 23.8131C24.1557 25.3844 24.1963 26.9525 24.6097 28.4745L17.1756 42.5051ZM17.1756 42.5051C15.7333 40.9036 15.8571 38.1932 17.4567 36.5935L24.3027 29.7487L24.3029 29.7486M17.1756 42.5051L24.3029 29.7486M24.3029 29.7486C24.6258 29.4244 24.7382 28.9466 24.6097 28.4746L24.3029 29.7486ZM26.7637 27.8872C26.444 26.7123 26.4137 25.4978 26.675 24.2787L26.7637 27.8872ZM26.7637 27.8872C27.102 29.1262 26.7637 30.4433 25.8817 31.3265L26.7637 27.8872ZM32.6937 18.3574C29.6743 18.8977 27.2158 21.2684 26.5772 24.2577C26.3126 25.4921 26.3432 26.7228 26.6672 27.9134L26.6672 27.9135C26.9964 29.1191 26.6667 30.3989 25.8109 31.2558L18.965 38.1006L19.0357 38.1713L18.965 38.1006C18.5667 38.4989 18.3447 39.0505 18.3064 39.5954C18.268 40.1397 18.4124 40.6886 18.7618 41.0767C19.1474 41.5051 19.677 41.7505 20.2503 41.7654C20.8171 41.7886 21.3662 41.5647 21.7721 41.16L21.7722 41.1599L28.743 34.189C29.5977 33.3344 30.8786 33.0024 32.0854 33.3316C33.2725 33.6556 34.5032 33.6862 35.7411 33.4216C38.7304 32.7842 41.1011 30.3269 41.6426 27.3051L41.6426 27.3051C41.8051 26.3961 41.8081 25.483 41.6512 24.5942V24.3595L41.4818 24.5228L38.3843 27.5083L38.3843 27.5083L38.383 27.5096C37.5517 28.3409 36.3953 28.8039 35.2157 28.7265L35.2142 28.7264C34.0339 28.6672 32.925 28.1055 32.1728 27.1846L32.1727 27.1844C30.8323 25.5485 31.0084 23.0282 32.5869 21.4505C32.587 21.4504 32.5871 21.4503 32.5872 21.4502L35.2082 18.8642L35.2089 18.8635C35.3213 18.7505 35.3849 18.6482 35.4192 18.5653C35.4362 18.5239 35.446 18.4872 35.4508 18.4562C35.4551 18.4283 35.4565 18.3971 35.4495 18.3701L35.4324 18.3043L35.365 18.2959C34.9939 18.25 34.6071 18.2228 34.214 18.2228H34.1726L34.1702 18.2252C33.6855 18.2275 33.1898 18.269 32.6938 18.3574L32.6937 18.3574ZM21.7015 41.0892L28.6723 34.1183C29.5532 33.2375 30.8715 32.8968 32.1117 33.2352C33.283 33.5548 34.4975 33.5852 35.7202 33.3238L21.7015 41.0892Z" fill="white" stroke="#42526B" stroke-width="0.2"/>
</g>
<defs>
<clipPath id="clip0_268_26463">
<rect width="28" height="28" fill="white" transform="translate(16 16)"/>
</clipPath>
</defs>
</svg>
