<?xml version="1.0" encoding="utf-8"?>
<!-- Generator: Adobe Illustrator 26.3.1, SVG Export Plug-In . SVG Version: 6.00 Build 0)  -->
<svg version="1.1" id="Layer_1" xmlns="http://www.w3.org/2000/svg" xmlns:xlink="http://www.w3.org/1999/xlink" x="0px" y="0px"
	 viewBox="0 0 24 24" style="enable-background:new 0 0 24 24;" xml:space="preserve">
<style type="text/css">
	.st0{fill:#FFFFFF;}
</style>
<path class="st0" d="M12,17.2c-3.6,0-6.7,2.2-7.8,5.6c-0.3,1,1.2,1.5,1.5,0.5c1.8-5.9,10.6-5.9,12.5,0c0.3,1,1.8,0.5,1.5-0.5
	C18.7,19.4,15.6,17.2,12,17.2z"/>
<path class="st0" d="M15.9,10.6c0.4,0.5,1.4,0.1,1.4-0.4c0.4-3.1-2.2-6-5.2-5.9c-4.3-0.1-6.9,5.3-4.1,8.6C8,12.2,8.2,11.6,8.6,11
	C7.3,8.3,10,5.1,12.9,5.9c1.8,0.4,3,2.2,2.8,4C15.7,10.1,15.7,10.4,15.9,10.6z"/>
<path class="st0" d="M12.6,0.2c-4.7-0.3-9,3-9.8,7.7C2.8,8.3,3.2,8.8,3.6,8.8c0.4,0,0.7-0.3,0.8-0.6C5,4.4,8.7,1.6,12.5,1.8
	c4.1,0.1,7.2,3.8,7.2,8.1c0,1.8-1.5,3.3-3.4,3.3h-2.6l-0.1-0.1c-0.1-0.5-0.5-0.9-0.9-1.1c-0.1-0.1-0.4-0.2-0.6-0.2
	c-2.9-0.1-2.4,4.4,0.4,3.5c0.2-0.1,0.5-0.2,0.6-0.4h3c2.7,0,5-2.2,5-4.9C21.4,4.8,17.5,0.4,12.6,0.2z"/>
</svg>
