<?xml version="1.0" encoding="utf-8"?>
<!-- Generator: Adobe Illustrator 26.3.1, SVG Export Plug-In . SVG Version: 6.00 Build 0)  -->
<svg version="1.1" id="Layer_1" xmlns="http://www.w3.org/2000/svg" xmlns:xlink="http://www.w3.org/1999/xlink" x="0px" y="0px"
	 viewBox="0 0 24 24" style="enable-background:new 0 0 24 24;" xml:space="preserve">
<style type="text/css">
	.st0{fill:#FFFFFF;}
</style>
<path class="st0" d="M23.5,7.1c-0.1-0.6-0.5-1.1-1.1-1.2c-0.6-0.2-1.2,0-1.7,0.4l-2.6,2.5c-0.4,0.4-1,0.6-1.6,0.6
	c-0.6,0-1.1-0.3-1.5-0.8c-0.7-0.8-0.6-2.1,0.2-2.9l2.2-2.2c0.6-0.6,0.8-1.3,0.6-2c-0.2-0.6-0.6-1-1.2-1c-0.5-0.1-0.9-0.1-1.4-0.1
	s-1,0-1.5,0.1c-3.2,0.6-5.8,3.1-6.4,6.2c-0.3,1.3-0.2,2.6,0.1,3.8c0.1,0.5,0,1-0.3,1.4l-5.9,5.9c-1.3,1.3-1.4,3.4-0.2,4.6
	c0.6,0.7,1.5,1.1,2.4,1.1h0.1c0.9,0,1.7-0.4,2.3-1l6-6c0.4-0.4,0.9-0.5,1.4-0.3c1.2,0.3,2.5,0.4,3.8,0.1c3.1-0.7,5.7-3.3,6.2-6.5
	C23.6,9,23.6,8,23.5,7.1z M22.3,9.8c-0.2,1.4-0.9,2.6-1.8,3.6S18.3,15,17,15.2c-1.1,0.2-2.2,0.2-3.3-0.1c-0.9-0.3-1.9,0-2.6,0.6
	l-6,6c-0.4,0.4-0.9,0.6-1.5,0.6H3.6c-0.6,0-1.1-0.3-1.5-0.7c-0.7-0.8-0.6-2.2,0.2-3l5.9-5.9c0.6-0.7,0.9-1.6,0.6-2.6
	C8.6,9.2,8.5,8.1,8.8,7c0.6-2.7,2.8-4.8,5.5-5.3c0.4-0.1,0.8-0.1,1.3-0.1h0.1c0.3,0,0.7,0,1,0.1l0.1,0l0.2,0.1L17,1.9
	c0,0.2,0,0.4-0.3,0.7l-2.2,2.2c-1.2,1.2-1.4,3.2-0.3,4.5c0.6,0.7,1.5,1.2,2.4,1.2c0.9,0.1,1.8-0.3,2.5-0.9l2.8-2.7
	c0,0,0.1-0.1,0.2-0.1C22,6.9,22.1,7,22.1,7s0.1,0.2,0.1,0.3C22.5,8.1,22.4,8.9,22.3,9.8z"/>
</svg>
