<svg width="907" height="907" viewBox="0 0 907 907" fill="none" xmlns="http://www.w3.org/2000/svg">
<g opacity="0.2">
<ellipse opacity="0.1" cx="453.832" cy="453.619" rx="451.832" ry="451.619" stroke="#405068" stroke-width="2.25043" stroke-miterlimit="4.62023" stroke-linecap="round" stroke-dasharray="26.26 37.51 11.25 11.25"/>
<path opacity="0.1" d="M869.547 453.754C869.547 683.468 683.232 869.688 453.4 869.688C223.567 869.688 37.2522 683.468 37.2522 453.754C37.2522 224.041 223.567 37.8203 453.4 37.8203C683.232 37.8203 869.547 224.041 869.547 453.754Z" stroke="#405068" stroke-width="2.25043"/>
<ellipse opacity="0.2" cx="453.677" cy="453.463" rx="382.287" ry="382.073" stroke="#405068" stroke-width="2.25043" stroke-miterlimit="4.62023" stroke-linecap="round" stroke-dasharray="26.26 37.51 11.25 11.25"/>
<path opacity="0.3" d="M800.698 453.457C800.698 644.997 645.329 800.272 453.669 800.272C262.01 800.272 106.641 644.997 106.641 453.457C106.641 261.916 262.01 106.641 453.669 106.641C645.329 106.641 800.698 261.916 800.698 453.457Z" stroke="#405068" stroke-width="2.25043"/>
<ellipse opacity="0.4" cx="453.947" cy="453.734" rx="313.168" ry="312.954" stroke="#405068" stroke-width="2.25043" stroke-miterlimit="4.62023" stroke-linecap="round" stroke-dasharray="26.26 37.51 11.25 11.25"/>
<path opacity="0.5" d="M730.428 453.585C730.428 606.245 606.577 730.002 453.798 730.002C301.019 730.002 177.168 606.245 177.168 453.585C177.168 300.925 301.019 177.169 453.798 177.169C606.577 177.169 730.428 300.925 730.428 453.585Z" stroke="#405068" stroke-width="2.25043"/>
<path opacity="0.6" d="M696.574 453.437C696.574 587.481 587.815 696.147 453.651 696.147C319.487 696.147 210.727 587.481 210.727 453.437C210.727 319.392 319.487 210.726 453.651 210.726C587.815 210.726 696.574 319.392 696.574 453.437Z" stroke="#405068" stroke-width="2.25043"/>
<ellipse opacity="0.7" cx="453.786" cy="453.572" rx="211.196" ry="210.983" stroke="#405068" stroke-width="2.25043" stroke-miterlimit="4.62023" stroke-linecap="round" stroke-dasharray="26.26 37.51 11.25 11.25"/>
<path opacity="0.8" d="M626.872 453.85C626.872 549.485 549.249 627.015 453.494 627.015C357.738 627.015 280.115 549.485 280.115 453.85C280.115 358.215 357.738 280.685 453.494 280.685C549.249 280.685 626.872 358.215 626.872 453.85Z" stroke="#405068" stroke-width="2.25043"/>
<ellipse opacity="0.9" cx="453.773" cy="453.558" rx="134.398" ry="134.184" stroke="#405068" stroke-width="2.25043" stroke-miterlimit="4.62023" stroke-linecap="round" stroke-dasharray="26.26 37.51 11.25 11.25"/>
<path d="M548.354 453.835C548.354 506.112 505.88 548.495 453.481 548.495C401.081 548.495 358.608 506.112 358.608 453.835C358.608 401.558 401.081 359.175 453.481 359.175C505.88 359.175 548.354 401.558 548.354 453.835Z" stroke="#405068" stroke-width="2.25043"/>
<ellipse cx="453.758" cy="453.544" rx="64.4255" ry="64.2122" stroke="#405068" stroke-width="2.25043" stroke-miterlimit="4.62023" stroke-linecap="round" stroke-dasharray="26.26 37.51 11.25 11.25"/>
</g>
</svg>
